<svg id="Layer_1" data-name="Layer 1" xmlns="http://www.w3.org/2000/svg" xmlns:xlink="http://www.w3.org/1999/xlink" viewBox="0 0 828.72 792.77"><defs><style>.cls-1,.cls-5{fill:none;}.cls-2{opacity:0.07;}.cls-3{clip-path:url(#clip-path);}.cls-4{opacity:0.07;}.cls-5{stroke:#96848c;stroke-miterlimit:10;}.cls-6{fill:#96848c;}</style><clipPath id="clip-path" transform="translate(-1.14 -2.96)"><rect class="cls-1" width="836.53" height="594.74"/></clipPath></defs><title>network-graph</title><g class="cls-2"><g class="cls-3"><g class="cls-4"><polygon id="triangle36" class="cls-5" points="570.3 285.39 602.82 348.81 615.78 314 570.3 285.39"/><polygon id="triangle36-2" data-name="triangle36" class="cls-5" points="311.84 636.51 324.63 657.92 300.69 711.42 311.84 636.51"/><polygon id="triangle36-3" data-name="triangle36" class="cls-5" points="324.63 657.92 406.59 637.17 390.96 628.13 324.63 657.92"/><polygon id="triangle36-4" data-name="triangle36" class="cls-5" points="399.64 616.55 406.59 637.17 390.96 628.13 399.64 616.55"/><polygon id="triangle36-5" data-name="triangle36" class="cls-5" points="447.57 301.69 483.26 322.05 471.18 336.07 447.57 301.69"/><polygon id="triangle36-6" data-name="triangle36" class="cls-5" points="615.78 314 602.82 348.81 657.12 357.52 615.78 314"/><polygon id="triangle36-7" data-name="triangle36" class="cls-5" points="602.82 348.81 645.9 437.18 657.12 357.52 602.82 348.81"/><polygon id="triangle36-8" data-name="triangle36" class="cls-5" points="338.79 224.91 354.03 230.87 377.06 206.35 338.79 224.91"/><polygon id="triangle36-9" data-name="triangle36" class="cls-5" points="615.78 314 657.12 357.52 673.48 358.78 615.78 314"/><polygon id="triangle36-10" data-name="triangle36" class="cls-5" points="467.47 634.2 454.93 648.73 416.85 606.4 467.47 634.2"/><polygon id="triangle36-11" data-name="triangle36" class="cls-5" points="471.18 336.07 514.22 438.5 561.7 384.43 471.18 336.07"/><polygon id="triangle36-12" data-name="triangle36" class="cls-5" points="602.82 348.81 645.9 437.18 561.7 384.43 602.82 348.81"/><polygon id="triangle36-13" data-name="triangle36" class="cls-5" points="572.9 468.23 645.9 437.18 561.7 384.43 572.9 468.23"/><polygon id="triangle36-14" data-name="triangle36" class="cls-5" points="447.57 301.69 483.26 322.05 501.63 312.99 447.57 301.69"/><polygon id="triangle36-15" data-name="triangle36" class="cls-5" points="338.69 296.23 447.57 301.69 384.53 246.25 338.69 296.23"/><polygon id="triangle36-16" data-name="triangle36" class="cls-5" points="354.03 230.87 377.06 206.35 384.53 246.25 354.03 230.87"/><polygon id="triangle36-17" data-name="triangle36" class="cls-5" points="364.46 47 381.46 102.43 402.28 58.08 364.46 47"/><polygon id="triangle36-18" data-name="triangle36" class="cls-5" points="83.16 298.7 75.52 315.01 123.75 359.37 83.16 298.7"/><polygon id="triangle36-19" data-name="triangle36" class="cls-5" points="83.16 298.7 160.51 336.56 123.75 359.37 83.16 298.7"/><polygon id="triangle36-20" data-name="triangle36" class="cls-5" points="381.46 102.43 465.84 132.81 352.53 163.59 381.46 102.43"/><polygon id="triangle36-21" data-name="triangle36" class="cls-5" points="338.79 224.91 377.06 206.35 352.53 163.59 338.79 224.91"/><polygon id="triangle36-22" data-name="triangle36" class="cls-5" points="377.06 206.35 465.84 132.81 352.53 163.59 377.06 206.35"/><polygon id="triangle36-23" data-name="triangle36" class="cls-5" points="447.57 301.69 501.63 312.99 493.38 222.55 447.57 301.69"/><polygon id="triangle36-24" data-name="triangle36" class="cls-5" points="501.63 312.99 570.3 285.39 493.38 222.55 501.63 312.99"/><polygon id="triangle36-25" data-name="triangle36" class="cls-5" points="742.88 318.72 795.51 302.37 769.57 342.84 742.88 318.72"/><polygon id="triangle36-26" data-name="triangle36" class="cls-5" points="795.51 302.37 794.13 371.54 769.57 342.84 795.51 302.37"/><polygon id="triangle36-27" data-name="triangle36" class="cls-5" points="657.12 357.52 673.48 358.78 687.84 438.04 657.12 357.52"/><polygon id="triangle36-28" data-name="triangle36" class="cls-5" points="657.12 357.52 645.9 437.18 687.84 438.04 657.12 357.52"/><polygon id="triangle36-29" data-name="triangle36" class="cls-5" points="83.16 298.7 153.08 244.09 164.75 288.86 83.16 298.7"/><polygon id="triangle36-30" data-name="triangle36" class="cls-5" points="83.16 298.7 160.51 336.56 164.75 288.86 83.16 298.7"/><polygon id="triangle36-31" data-name="triangle36" class="cls-5" points="160.51 336.56 205.18 324.01 164.75 288.86 160.51 336.56"/><polygon id="triangle36-32" data-name="triangle36" class="cls-5" points="101.55 362 123.75 359.37 83.32 401.26 101.55 362"/><polygon id="triangle36-33" data-name="triangle36" class="cls-5" points="300.69 711.42 324.63 657.92 425.06 749.41 300.69 711.42"/><polygon id="triangle36-34" data-name="triangle36" class="cls-5" points="324.63 657.92 406.59 637.17 425.06 749.41 324.63 657.92"/><polygon id="triangle36-35" data-name="triangle36" class="cls-5" points="406.59 637.17 454.93 648.73 425.06 749.41 406.59 637.17"/><polygon id="triangle36-36" data-name="triangle36" class="cls-5" points="514.22 438.5 480.5 498.92 541.03 536.02 514.22 438.5"/><polygon id="triangle36-37" data-name="triangle36" class="cls-5" points="480.5 498.92 482.66 518.8 541.03 536.02 480.5 498.92"/><polygon id="triangle36-38" data-name="triangle36" class="cls-5" points="742.88 318.72 769.57 342.84 734.12 396.93 742.88 318.72"/><polygon id="triangle36-39" data-name="triangle36" class="cls-5" points="769.57 342.84 794.13 371.54 734.12 396.93 769.57 342.84"/><polygon id="triangle36-40" data-name="triangle36" class="cls-5" points="160.51 336.56 205.18 324.01 254.98 430.91 160.51 336.56"/><polygon id="triangle36-41" data-name="triangle36" class="cls-5" points="254.98 430.91 285.01 466.63 292.05 420.62 254.98 430.91"/><polygon id="triangle36-42" data-name="triangle36" class="cls-5" points="285.01 466.63 313.43 458.55 292.05 420.62 285.01 466.63"/><polygon id="triangle36-43" data-name="triangle36" class="cls-5" points="313.43 458.55 355.94 464.64 292.05 420.62 313.43 458.55"/><polygon id="triangle36-44" data-name="triangle36" class="cls-5" points="454.93 648.73 425.06 749.41 484.42 746.9 454.93 648.73"/><polygon id="triangle36-45" data-name="triangle36" class="cls-5" points="384.53 246.25 338.69 296.23 324.81 250.31 384.53 246.25"/><polygon id="triangle36-46" data-name="triangle36" class="cls-5" points="338.79 224.91 354.03 230.87 324.81 250.31 338.79 224.91"/><polygon id="triangle36-47" data-name="triangle36" class="cls-5" points="354.03 230.87 384.53 246.25 324.81 250.31 354.03 230.87"/><polygon id="triangle36-48" data-name="triangle36" class="cls-5" points="465.84 132.81 527.32 164.22 479.03 215.66 465.84 132.81"/><polygon id="triangle36-49" data-name="triangle36" class="cls-5" points="384.53 246.25 447.57 301.69 479.03 215.66 384.53 246.25"/><polygon id="triangle36-50" data-name="triangle36" class="cls-5" points="527.32 164.22 493.38 222.55 479.03 215.66 527.32 164.22"/><polygon id="triangle36-51" data-name="triangle36" class="cls-5" points="493.38 222.55 447.57 301.69 479.03 215.66 493.38 222.55"/><polygon id="triangle36-52" data-name="triangle36" class="cls-5" points="377.06 206.35 465.84 132.81 479.03 215.66 377.06 206.35"/><polygon id="triangle36-53" data-name="triangle36" class="cls-5" points="377.06 206.35 384.53 246.25 479.03 215.66 377.06 206.35"/><polygon id="triangle36-54" data-name="triangle36" class="cls-5" points="300.69 711.42 425.06 749.41 418.98 789.74 300.69 711.42"/><polygon id="triangle36-55" data-name="triangle36" class="cls-5" points="425.06 749.41 484.42 746.9 418.98 789.74 425.06 749.41"/><polygon id="triangle36-56" data-name="triangle36" class="cls-5" points="475.05 63.46 489.32 98.47 526.38 49.65 475.05 63.46"/><polygon id="triangle36-57" data-name="triangle36" class="cls-5" points="317.88 109.44 352.53 163.59 267.98 193.19 317.88 109.44"/><polygon id="triangle36-58" data-name="triangle36" class="cls-5" points="352.53 163.59 338.79 224.91 267.98 193.19 352.53 163.59"/><polygon id="triangle36-59" data-name="triangle36" class="cls-5" points="338.79 224.91 324.81 250.31 267.98 193.19 338.79 224.91"/><polygon id="triangle36-60" data-name="triangle36" class="cls-5" points="483.26 322.05 471.18 336.07 540.91 342.36 483.26 322.05"/><polygon id="triangle36-61" data-name="triangle36" class="cls-5" points="483.26 322.05 501.63 312.99 540.91 342.36 483.26 322.05"/><polygon id="triangle36-62" data-name="triangle36" class="cls-5" points="471.18 336.07 561.7 384.43 540.91 342.36 471.18 336.07"/><polygon id="triangle36-63" data-name="triangle36" class="cls-5" points="501.63 312.99 570.3 285.39 540.91 342.36 501.63 312.99"/><polygon id="triangle36-64" data-name="triangle36" class="cls-5" points="570.3 285.39 602.82 348.81 540.91 342.36 570.3 285.39"/><polygon id="triangle36-65" data-name="triangle36" class="cls-5" points="561.7 384.43 602.82 348.81 540.91 342.36 561.7 384.43"/><polygon id="triangle36-66" data-name="triangle36" class="cls-5" points="355.94 464.64 393.31 548.59 400.99 518.22 355.94 464.64"/><polygon id="triangle36-67" data-name="triangle36" class="cls-5" points="393.31 548.59 428.19 566.3 400.99 518.22 393.31 548.59"/><polygon id="triangle36-68" data-name="triangle36" class="cls-5" points="514.22 438.5 480.5 498.92 474.63 468.98 514.22 438.5"/><polygon id="triangle36-69" data-name="triangle36" class="cls-5" points="399.64 616.55 416.85 606.4 410.63 616.53 399.64 616.55"/><polygon id="triangle36-70" data-name="triangle36" class="cls-5" points="399.64 616.55 406.59 637.17 410.63 616.53 399.64 616.55"/><polygon id="triangle36-71" data-name="triangle36" class="cls-5" points="416.85 606.4 454.93 648.73 410.63 616.53 416.85 606.4"/><polygon id="triangle36-72" data-name="triangle36" class="cls-5" points="406.59 637.17 454.93 648.73 410.63 616.53 406.59 637.17"/><polygon id="triangle36-73" data-name="triangle36" class="cls-5" points="734.12 396.93 794.13 371.54 778.46 415.08 734.12 396.93"/><polygon id="triangle36-74" data-name="triangle36" class="cls-5" points="285.01 466.63 313.43 458.55 284.93 494.74 285.01 466.63"/><polygon id="triangle36-75" data-name="triangle36" class="cls-5" points="313.43 458.55 355.94 464.64 284.93 494.74 313.43 458.55"/><polygon id="triangle36-76" data-name="triangle36" class="cls-5" points="355.94 464.64 393.31 548.59 284.93 494.74 355.94 464.64"/><polygon id="triangle36-77" data-name="triangle36" class="cls-5" points="572.9 468.23 645.9 437.18 648.19 453.42 572.9 468.23"/><polygon id="triangle36-78" data-name="triangle36" class="cls-5" points="645.9 437.18 687.84 438.04 648.19 453.42 645.9 437.18"/><polygon id="triangle36-79" data-name="triangle36" class="cls-5" points="687.84 438.04 685.41 507.17 648.19 453.42 687.84 438.04"/><polygon id="triangle36-80" data-name="triangle36" class="cls-5" points="194.4 489.59 223 536.18 179.58 521.72 194.4 489.59"/><polygon id="triangle36-81" data-name="triangle36" class="cls-5" points="223 536.18 191.42 684.79 179.58 521.72 223 536.18"/><polygon id="triangle36-82" data-name="triangle36" class="cls-5" points="687.84 438.04 753.52 469.65 718.76 414.45 687.84 438.04"/><polygon id="triangle36-83" data-name="triangle36" class="cls-5" points="734.12 396.93 778.46 415.08 718.76 414.45 734.12 396.93"/><polygon id="triangle36-84" data-name="triangle36" class="cls-5" points="489.32 98.47 465.84 132.81 458.14 90.81 489.32 98.47"/><polygon id="triangle36-85" data-name="triangle36" class="cls-5" points="402.28 58.08 381.46 102.43 458.14 90.81 402.28 58.08"/><polygon id="triangle36-86" data-name="triangle36" class="cls-5" points="402.28 58.08 475.05 63.46 458.14 90.81 402.28 58.08"/><polygon id="triangle36-87" data-name="triangle36" class="cls-5" points="381.46 102.43 465.84 132.81 458.14 90.81 381.46 102.43"/><polygon id="triangle36-88" data-name="triangle36" class="cls-5" points="475.05 63.46 489.32 98.47 458.14 90.81 475.05 63.46"/><polygon id="triangle36-89" data-name="triangle36" class="cls-5" points="254.98 430.91 274.83 473.98 282.09 468.58 254.98 430.91"/><polygon id="triangle36-90" data-name="triangle36" class="cls-5" points="254.98 430.91 285.01 466.63 282.09 468.58 254.98 430.91"/><polygon id="triangle36-91" data-name="triangle36" class="cls-5" points="274.83 473.98 284.93 494.74 282.09 468.58 274.83 473.98"/><polygon id="triangle36-92" data-name="triangle36" class="cls-5" points="285.01 466.63 284.93 494.74 282.09 468.58 285.01 466.63"/><polygon id="triangle36-93" data-name="triangle36" class="cls-5" points="194.4 489.59 254.98 430.91 135.52 448.4 194.4 489.59"/><polygon id="triangle36-94" data-name="triangle36" class="cls-5" points="194.4 489.59 179.58 521.72 135.52 448.4 194.4 489.59"/><polygon id="triangle36-95" data-name="triangle36" class="cls-5" points="83.32 401.26 123.75 359.37 135.52 448.4 83.32 401.26"/><polygon id="triangle36-96" data-name="triangle36" class="cls-5" points="123.75 359.37 160.51 336.56 135.52 448.4 123.75 359.37"/><polygon id="triangle36-97" data-name="triangle36" class="cls-5" points="160.51 336.56 254.98 430.91 135.52 448.4 160.51 336.56"/><polygon id="triangle36-98" data-name="triangle36" class="cls-5" points="527.32 164.22 493.38 222.55 551.62 204.89 527.32 164.22"/><polygon id="triangle36-99" data-name="triangle36" class="cls-5" points="527.32 164.22 562.62 161.66 551.62 204.89 527.32 164.22"/><polygon id="triangle36-100" data-name="triangle36" class="cls-5" points="493.38 222.55 570.3 285.39 551.62 204.89 493.38 222.55"/><polygon id="triangle36-101" data-name="triangle36" class="cls-5" points="562.62 161.66 608.75 205.92 551.62 204.89 562.62 161.66"/><polygon id="triangle36-102" data-name="triangle36" class="cls-5" points="608.75 205.92 570.3 285.39 551.62 204.89 608.75 205.92"/><polygon id="triangle36-103" data-name="triangle36" class="cls-5" points="219.8 241.9 228.57 317.79 283.96 273.97 219.8 241.9"/><polygon id="triangle36-104" data-name="triangle36" class="cls-5" points="205.18 324.01 228.57 317.79 248.05 328.56 205.18 324.01"/><polygon id="triangle36-105" data-name="triangle36" class="cls-5" points="228.57 317.79 283.96 273.97 248.05 328.56 228.57 317.79"/><polygon id="triangle36-106" data-name="triangle36" class="cls-5" points="283.96 273.97 315.31 302.46 248.05 328.56 283.96 273.97"/><polygon id="triangle36-107" data-name="triangle36" class="cls-5" points="393.31 548.59 428.19 566.3 428.4 573.08 393.31 548.59"/><polygon id="triangle36-108" data-name="triangle36" class="cls-5" points="416.85 606.4 467.47 634.2 428.4 573.08 416.85 606.4"/><polygon id="triangle36-109" data-name="triangle36" class="cls-5" points="561.7 384.43 514.22 438.5 548.66 447.35 561.7 384.43"/><polygon id="triangle36-110" data-name="triangle36" class="cls-5" points="561.7 384.43 572.9 468.23 548.66 447.35 561.7 384.43"/><polygon id="triangle36-111" data-name="triangle36" class="cls-5" points="514.22 438.5 541.03 536.02 548.66 447.35 514.22 438.5"/><polygon id="triangle36-112" data-name="triangle36" class="cls-5" points="572.9 468.23 575.55 516.76 548.66 447.35 572.9 468.23"/><polygon id="triangle36-113" data-name="triangle36" class="cls-5" points="541.03 536.02 575.55 516.76 548.66 447.35 541.03 536.02"/><polygon id="triangle36-114" data-name="triangle36" class="cls-5" points="135.52 448.4 179.58 521.72 107.92 492.96 135.52 448.4"/><polygon id="triangle36-115" data-name="triangle36" class="cls-5" points="194.4 489.59 254.98 430.91 251.55 481.25 194.4 489.59"/><polygon id="triangle36-116" data-name="triangle36" class="cls-5" points="194.4 489.59 223 536.18 251.55 481.25 194.4 489.59"/><polygon id="triangle36-117" data-name="triangle36" class="cls-5" points="254.98 430.91 274.83 473.98 251.55 481.25 254.98 430.91"/><polygon id="triangle36-118" data-name="triangle36" class="cls-5" points="274.83 473.98 284.93 494.74 251.55 481.25 274.83 473.98"/><polygon id="triangle36-119" data-name="triangle36" class="cls-5" points="223 536.18 284.93 494.74 251.55 481.25 223 536.18"/><polygon id="triangle36-120" data-name="triangle36" class="cls-5" points="393.31 548.59 428.4 573.08 401.72 587.49 393.31 548.59"/><polygon id="triangle36-121" data-name="triangle36" class="cls-5" points="428.4 573.08 416.85 606.4 401.72 587.49 428.4 573.08"/><polygon id="triangle36-122" data-name="triangle36" class="cls-5" points="20.13 392.67 56.53 409.94 23.97 360.57 20.13 392.67"/><polygon id="triangle36-123" data-name="triangle36" class="cls-5" points="56.53 409.94 83.32 401.26 23.97 360.57 56.53 409.94"/><polygon id="triangle36-124" data-name="triangle36" class="cls-5" points="530.04 635.28 550.52 642.65 582.14 615.97 530.04 635.28"/><polygon id="triangle36-125" data-name="triangle36" class="cls-5" points="550.52 642.65 573.28 688.45 582.14 615.97 550.52 642.65"/><polygon id="triangle36-126" data-name="triangle36" class="cls-5" points="636.03 567.92 573.28 688.45 582.14 615.97 636.03 567.92"/><polygon id="triangle36-127" data-name="triangle36" class="cls-5" points="418.98 789.74 484.42 746.9 558.42 737.46 418.98 789.74"/><polygon id="triangle36-128" data-name="triangle36" class="cls-5" points="315.31 302.46 338.69 296.23 348.53 328.95 315.31 302.46"/><polygon id="triangle36-129" data-name="triangle36" class="cls-5" points="338.69 296.23 447.57 301.69 348.53 328.95 338.69 296.23"/><polygon id="triangle36-130" data-name="triangle36" class="cls-5" points="447.57 301.69 471.18 336.07 348.53 328.95 447.57 301.69"/><polygon id="triangle36-131" data-name="triangle36" class="cls-5" points="718.76 414.45 778.46 415.08 776.36 453.51 718.76 414.45"/><polygon id="triangle36-132" data-name="triangle36" class="cls-5" points="718.76 414.45 753.52 469.65 776.36 453.51 718.76 414.45"/><polygon id="triangle36-133" data-name="triangle36" class="cls-5" points="284.93 494.74 393.31 548.59 356.93 599 284.93 494.74"/><polygon id="triangle36-134" data-name="triangle36" class="cls-5" points="393.31 548.59 401.72 587.49 356.93 599 393.31 548.59"/><polygon id="triangle36-135" data-name="triangle36" class="cls-5" points="311.84 636.51 324.63 657.92 356.93 599 311.84 636.51"/><polygon id="triangle36-136" data-name="triangle36" class="cls-5" points="324.63 657.92 390.96 628.13 356.93 599 324.63 657.92"/><polygon id="triangle36-137" data-name="triangle36" class="cls-5" points="364.46 47 317.88 109.44 363.35 104.21 364.46 47"/><polygon id="triangle36-138" data-name="triangle36" class="cls-5" points="364.46 47 381.46 102.43 363.35 104.21 364.46 47"/><polygon id="triangle36-139" data-name="triangle36" class="cls-5" points="317.88 109.44 352.53 163.59 363.35 104.21 317.88 109.44"/><polygon id="triangle36-140" data-name="triangle36" class="cls-5" points="381.46 102.43 352.53 163.59 363.35 104.21 381.46 102.43"/><polygon id="triangle36-141" data-name="triangle36" class="cls-5" points="541.03 536.02 575.55 516.76 551.67 571.38 541.03 536.02"/><polygon id="triangle36-142" data-name="triangle36" class="cls-5" points="575.55 516.76 636.03 567.92 551.67 571.38 575.55 516.76"/><polygon id="triangle36-143" data-name="triangle36" class="cls-5" points="582.14 615.97 636.03 567.92 551.67 571.38 582.14 615.97"/><polygon id="triangle36-144" data-name="triangle36" class="cls-5" points="348.53 328.95 471.18 336.07 451.7 402.35 348.53 328.95"/><polygon id="triangle36-145" data-name="triangle36" class="cls-5" points="471.18 336.07 514.22 438.5 451.7 402.35 471.18 336.07"/><polygon id="triangle36-146" data-name="triangle36" class="cls-5" points="219.8 241.9 283.96 273.97 258.68 214.51 219.8 241.9"/><polygon id="triangle36-147" data-name="triangle36" class="cls-5" points="283.96 273.97 324.81 250.31 258.68 214.51 283.96 273.97"/><polygon id="triangle36-148" data-name="triangle36" class="cls-5" points="442.87 3.18 402.28 58.08 463.81 32.24 442.87 3.18"/><polygon id="triangle36-149" data-name="triangle36" class="cls-5" points="442.87 3.18 526.38 49.65 463.81 32.24 442.87 3.18"/><polygon id="triangle36-150" data-name="triangle36" class="cls-5" points="402.28 58.08 475.05 63.46 463.81 32.24 402.28 58.08"/><polygon id="triangle36-151" data-name="triangle36" class="cls-5" points="475.05 63.46 526.38 49.65 463.81 32.24 475.05 63.46"/><polygon id="triangle36-152" data-name="triangle36" class="cls-5" points="315.31 302.46 338.69 296.23 304.06 275.92 315.31 302.46"/><polygon id="triangle36-153" data-name="triangle36" class="cls-5" points="283.96 273.97 324.81 250.31 304.06 275.92 283.96 273.97"/><polygon id="triangle36-154" data-name="triangle36" class="cls-5" points="324.81 250.31 338.69 296.23 304.06 275.92 324.81 250.31"/><polygon id="triangle36-155" data-name="triangle36" class="cls-5" points="428.19 566.3 428.4 573.08 510.34 561.7 428.19 566.3"/><polygon id="triangle36-156" data-name="triangle36" class="cls-5" points="428.19 566.3 482.66 518.8 510.34 561.7 428.19 566.3"/><polygon id="triangle36-157" data-name="triangle36" class="cls-5" points="428.4 573.08 467.47 634.2 510.34 561.7 428.4 573.08"/><polygon id="triangle36-158" data-name="triangle36" class="cls-5" points="482.66 518.8 541.03 536.02 510.34 561.7 482.66 518.8"/><polygon id="triangle36-159" data-name="triangle36" class="cls-5" points="541.03 536.02 551.67 571.38 510.34 561.7 541.03 536.02"/><polygon id="triangle36-160" data-name="triangle36" class="cls-5" points="467.47 634.2 527.66 591.12 510.34 561.7 467.47 634.2"/><polygon id="triangle36-161" data-name="triangle36" class="cls-5" points="527.66 591.12 551.67 571.38 510.34 561.7 527.66 591.12"/><polygon id="triangle36-162" data-name="triangle36" class="cls-5" points="467.47 634.2 527.66 591.12 530.32 601.13 467.47 634.2"/><polygon id="triangle36-163" data-name="triangle36" class="cls-5" points="467.47 634.2 530.04 635.28 530.32 601.13 467.47 634.2"/><polygon id="triangle36-164" data-name="triangle36" class="cls-5" points="527.66 591.12 551.67 571.38 530.32 601.13 527.66 591.12"/><polygon id="triangle36-165" data-name="triangle36" class="cls-5" points="551.67 571.38 582.14 615.97 530.32 601.13 551.67 571.38"/><polygon id="triangle36-166" data-name="triangle36" class="cls-5" points="530.04 635.28 582.14 615.97 530.32 601.13 530.04 635.28"/><polygon id="triangle36-167" data-name="triangle36" class="cls-5" points="23.97 360.57 83.32 401.26 92.33 358.98 23.97 360.57"/><polygon id="triangle36-168" data-name="triangle36" class="cls-5" points="101.55 362 83.32 401.26 92.33 358.98 101.55 362"/><polygon id="triangle36-169" data-name="triangle36" class="cls-5" points="355.94 464.64 400.99 518.22 415.9 496.51 355.94 464.64"/><polygon id="triangle36-170" data-name="triangle36" class="cls-5" points="400.99 518.22 428.19 566.3 415.9 496.51 400.99 518.22"/><polygon id="triangle36-171" data-name="triangle36" class="cls-5" points="474.63 468.98 480.5 498.92 415.9 496.51 474.63 468.98"/><polygon id="triangle36-172" data-name="triangle36" class="cls-5" points="480.5 498.92 482.66 518.8 415.9 496.51 480.5 498.92"/><polygon id="triangle36-173" data-name="triangle36" class="cls-5" points="428.19 566.3 482.66 518.8 415.9 496.51 428.19 566.3"/><polygon id="triangle36-174" data-name="triangle36" class="cls-5" points="673.48 358.78 742.88 318.72 685.5 363.49 673.48 358.78"/><polygon id="triangle36-175" data-name="triangle36" class="cls-5" points="673.48 358.78 687.84 438.04 685.5 363.49 673.48 358.78"/><polygon id="triangle36-176" data-name="triangle36" class="cls-5" points="742.88 318.72 734.12 396.93 685.5 363.49 742.88 318.72"/><polygon id="triangle36-177" data-name="triangle36" class="cls-5" points="687.84 438.04 718.76 414.45 685.5 363.49 687.84 438.04"/><polygon id="triangle36-178" data-name="triangle36" class="cls-5" points="734.12 396.93 718.76 414.45 685.5 363.49 734.12 396.93"/><polygon id="triangle36-179" data-name="triangle36" class="cls-5" points="608.75 205.92 570.3 285.39 610.34 297.61 608.75 205.92"/><polygon id="triangle36-180" data-name="triangle36" class="cls-5" points="608.75 205.92 658.99 206.12 610.34 297.61 608.75 205.92"/><polygon id="triangle36-181" data-name="triangle36" class="cls-5" points="570.3 285.39 615.78 314 610.34 297.61 570.3 285.39"/><polygon id="triangle36-182" data-name="triangle36" class="cls-5" points="658.99 206.12 742.88 318.72 610.34 297.61 658.99 206.12"/><polygon id="triangle36-183" data-name="triangle36" class="cls-5" points="615.78 314 673.48 358.78 610.34 297.61 615.78 314"/><polygon id="triangle36-184" data-name="triangle36" class="cls-5" points="673.48 358.78 742.88 318.72 610.34 297.61 673.48 358.78"/><polygon id="triangle36-185" data-name="triangle36" class="cls-5" points="356.93 599 401.72 587.49 387.76 603.52 356.93 599"/><polygon id="triangle36-186" data-name="triangle36" class="cls-5" points="356.93 599 390.96 628.13 387.76 603.52 356.93 599"/><polygon id="triangle36-187" data-name="triangle36" class="cls-5" points="401.72 587.49 416.85 606.4 387.76 603.52 401.72 587.49"/><polygon id="triangle36-188" data-name="triangle36" class="cls-5" points="399.64 616.55 390.96 628.13 387.76 603.52 399.64 616.55"/><polygon id="triangle36-189" data-name="triangle36" class="cls-5" points="399.64 616.55 416.85 606.4 387.76 603.52 399.64 616.55"/><polygon id="triangle36-190" data-name="triangle36" class="cls-5" points="153.08 244.09 164.75 288.86 197.69 288.8 153.08 244.09"/><polygon id="triangle36-191" data-name="triangle36" class="cls-5" points="153.08 244.09 219.8 241.9 197.69 288.8 153.08 244.09"/><polygon id="triangle36-192" data-name="triangle36" class="cls-5" points="164.75 288.86 205.18 324.01 197.69 288.8 164.75 288.86"/><polygon id="triangle36-193" data-name="triangle36" class="cls-5" points="219.8 241.9 228.57 317.79 197.69 288.8 219.8 241.9"/><polygon id="triangle36-194" data-name="triangle36" class="cls-5" points="205.18 324.01 228.57 317.79 197.69 288.8 205.18 324.01"/><polygon id="triangle36-195" data-name="triangle36" class="cls-5" points="315.31 302.46 348.53 328.95 336.45 342.98 315.31 302.46"/><polygon id="triangle36-196" data-name="triangle36" class="cls-5" points="348.53 328.95 451.7 402.35 336.45 342.98 348.53 328.95"/><polygon id="triangle36-197" data-name="triangle36" class="cls-5" points="292.05 420.62 355.94 464.64 336.45 342.98 292.05 420.62"/><polygon id="triangle36-198" data-name="triangle36" class="cls-5" points="355.94 464.64 451.7 402.35 336.45 342.98 355.94 464.64"/><polygon id="triangle36-199" data-name="triangle36" class="cls-5" points="315.31 302.46 336.45 342.98 267.97 348.2 315.31 302.46"/><polygon id="triangle36-200" data-name="triangle36" class="cls-5" points="336.45 342.98 292.05 420.62 267.97 348.2 336.45 342.98"/><polygon id="triangle36-201" data-name="triangle36" class="cls-5" points="254.98 430.91 292.05 420.62 267.97 348.2 254.98 430.91"/><polygon id="triangle36-202" data-name="triangle36" class="cls-5" points="205.18 324.01 254.98 430.91 267.97 348.2 205.18 324.01"/><polygon id="triangle36-203" data-name="triangle36" class="cls-5" points="205.18 324.01 248.05 328.56 267.97 348.2 205.18 324.01"/><polygon id="triangle36-204" data-name="triangle36" class="cls-5" points="248.05 328.56 315.31 302.46 267.97 348.2 248.05 328.56"/><polygon id="triangle36-205" data-name="triangle36" class="cls-5" points="795.51 302.37 794.13 371.54 826.47 380.3 795.51 302.37"/><polygon id="triangle36-206" data-name="triangle36" class="cls-5" points="794.13 371.54 778.46 415.08 826.47 380.3 794.13 371.54"/><polygon id="triangle36-207" data-name="triangle36" class="cls-5" points="572.9 468.23 575.55 516.76 590.37 484.64 572.9 468.23"/><polygon id="triangle36-208" data-name="triangle36" class="cls-5" points="573.28 688.45 558.42 737.46 551.97 704.15 573.28 688.45"/><polygon id="triangle36-209" data-name="triangle36" class="cls-5" points="590.37 484.64 575.55 516.76 674.61 565.61 590.37 484.64"/><polygon id="triangle36-210" data-name="triangle36" class="cls-5" points="575.55 516.76 636.03 567.92 674.61 565.61 575.55 516.76"/><polygon id="triangle36-211" data-name="triangle36" class="cls-5" points="636.03 567.92 573.28 688.45 674.61 565.61 636.03 567.92"/><polygon id="triangle36-212" data-name="triangle36" class="cls-5" points="20.13 392.67 56.53 409.94 72.63 457 20.13 392.67"/><polygon id="triangle36-213" data-name="triangle36" class="cls-5" points="56.53 409.94 83.32 401.26 72.63 457 56.53 409.94"/><polygon id="triangle36-214" data-name="triangle36" class="cls-5" points="83.32 401.26 135.52 448.4 72.63 457 83.32 401.26"/><polygon id="triangle36-215" data-name="triangle36" class="cls-5" points="135.52 448.4 107.92 492.96 72.63 457 135.52 448.4"/><polygon id="triangle36-216" data-name="triangle36" class="cls-5" points="778.46 415.08 826.47 380.3 716.09 597.52 778.46 415.08"/><polygon id="triangle36-217" data-name="triangle36" class="cls-5" points="778.46 415.08 776.36 453.51 716.09 597.52 778.46 415.08"/><polygon id="triangle36-218" data-name="triangle36" class="cls-5" points="674.61 565.61 573.28 688.45 716.09 597.52 674.61 565.61"/><polygon id="triangle36-219" data-name="triangle36" class="cls-5" points="753.52 469.65 776.36 453.51 716.09 597.52 753.52 469.65"/><polygon id="triangle36-220" data-name="triangle36" class="cls-5" points="573.28 688.45 558.42 737.46 716.09 597.52 573.28 688.45"/><polygon id="triangle36-221" data-name="triangle36" class="cls-5" points="355.94 464.64 451.7 402.35 451.6 435.14 355.94 464.64"/><polygon id="triangle36-222" data-name="triangle36" class="cls-5" points="355.94 464.64 415.9 496.51 451.6 435.14 355.94 464.64"/><polygon id="triangle36-223" data-name="triangle36" class="cls-5" points="451.7 402.35 514.22 438.5 451.6 435.14 451.7 402.35"/><polygon id="triangle36-224" data-name="triangle36" class="cls-5" points="415.9 496.51 474.63 468.98 451.6 435.14 415.9 496.51"/><polygon id="triangle36-225" data-name="triangle36" class="cls-5" points="474.63 468.98 514.22 438.5 451.6 435.14 474.63 468.98"/><polygon id="triangle36-226" data-name="triangle36" class="cls-5" points="572.9 468.23 590.37 484.64 635.13 482.5 572.9 468.23"/><polygon id="triangle36-227" data-name="triangle36" class="cls-5" points="572.9 468.23 648.19 453.42 635.13 482.5 572.9 468.23"/><polygon id="triangle36-228" data-name="triangle36" class="cls-5" points="590.37 484.64 674.61 565.61 635.13 482.5 590.37 484.64"/><polygon id="triangle36-229" data-name="triangle36" class="cls-5" points="648.19 453.42 685.41 507.17 635.13 482.5 648.19 453.42"/><polygon id="triangle36-230" data-name="triangle36" class="cls-5" points="685.41 507.17 679.19 517.3 635.13 482.5 685.41 507.17"/><polygon id="triangle36-231" data-name="triangle36" class="cls-5" points="679.19 517.3 674.61 565.61 635.13 482.5 679.19 517.3"/><polygon id="triangle36-232" data-name="triangle36" class="cls-5" points="687.84 438.04 685.41 507.17 695.21 510.74 687.84 438.04"/><polygon id="triangle36-233" data-name="triangle36" class="cls-5" points="687.84 438.04 753.52 469.65 695.21 510.74 687.84 438.04"/><polygon id="triangle36-234" data-name="triangle36" class="cls-5" points="685.41 507.17 679.19 517.3 695.21 510.74 685.41 507.17"/><polygon id="triangle36-235" data-name="triangle36" class="cls-5" points="679.19 517.3 674.61 565.61 695.21 510.74 679.19 517.3"/><polygon id="triangle36-236" data-name="triangle36" class="cls-5" points="674.61 565.61 716.09 597.52 695.21 510.74 674.61 565.61"/><polygon id="triangle36-237" data-name="triangle36" class="cls-5" points="753.52 469.65 716.09 597.52 695.21 510.74 753.52 469.65"/><polygon id="triangle36-238" data-name="triangle36" class="cls-5" points="562.62 161.66 608.75 205.92 622.74 175.84 562.62 161.66"/><polygon id="triangle36-239" data-name="triangle36" class="cls-5" points="608.75 205.92 658.99 206.12 622.74 175.84 608.75 205.92"/><polygon id="triangle36-240" data-name="triangle36" class="cls-5" points="223 536.18 284.93 494.74 255.99 599.1 223 536.18"/><polygon id="triangle36-241" data-name="triangle36" class="cls-5" points="223 536.18 191.42 684.79 255.99 599.1 223 536.18"/><polygon id="triangle36-242" data-name="triangle36" class="cls-5" points="284.93 494.74 356.93 599 255.99 599.1 284.93 494.74"/><polygon id="triangle36-243" data-name="triangle36" class="cls-5" points="255.99 599.1 191.42 684.79 291.65 628.83 255.99 599.1"/><polygon id="triangle36-244" data-name="triangle36" class="cls-5" points="255.99 599.1 356.93 599 291.65 628.83 255.99 599.1"/><polygon id="triangle36-245" data-name="triangle36" class="cls-5" points="191.42 684.79 300.69 711.42 291.65 628.83 191.42 684.79"/><polygon id="triangle36-246" data-name="triangle36" class="cls-5" points="311.84 636.51 356.93 599 291.65 628.83 311.84 636.51"/><polygon id="triangle36-247" data-name="triangle36" class="cls-5" points="311.84 636.51 300.69 711.42 291.65 628.83 311.84 636.51"/><polygon id="triangle36-248" data-name="triangle36" class="cls-5" points="467.47 634.2 454.93 648.73 538.68 692.61 467.47 634.2"/><polygon id="triangle36-249" data-name="triangle36" class="cls-5" points="467.47 634.2 530.04 635.28 538.68 692.61 467.47 634.2"/><polygon id="triangle36-250" data-name="triangle36" class="cls-5" points="454.93 648.73 484.42 746.9 538.68 692.61 454.93 648.73"/><polygon id="triangle36-251" data-name="triangle36" class="cls-5" points="530.04 635.28 550.52 642.65 538.68 692.61 530.04 635.28"/><polygon id="triangle36-252" data-name="triangle36" class="cls-5" points="550.52 642.65 573.28 688.45 538.68 692.61 550.52 642.65"/><polygon id="triangle36-253" data-name="triangle36" class="cls-5" points="484.42 746.9 558.42 737.46 538.68 692.61 484.42 746.9"/><polygon id="triangle36-254" data-name="triangle36" class="cls-5" points="551.97 704.15 573.28 688.45 538.68 692.61 551.97 704.15"/><polygon id="triangle36-255" data-name="triangle36" class="cls-5" points="551.97 704.15 558.42 737.46 538.68 692.61 551.97 704.15"/><polygon id="triangle36-256" data-name="triangle36" class="cls-5" points="179.58 521.72 191.42 684.79 107.67 500.23 179.58 521.72"/><polygon id="triangle36-257" data-name="triangle36" class="cls-5" points="107.92 492.96 179.58 521.72 107.67 500.23 107.92 492.96"/><polygon id="triangle36-258" data-name="triangle36" class="cls-5" points="153.08 244.09 219.8 241.9 211.26 206.64 153.08 244.09"/><polygon id="triangle36-259" data-name="triangle36" class="cls-5" points="219.8 241.9 258.68 214.51 211.26 206.64 219.8 241.9"/><polygon id="triangle36-260" data-name="triangle36" class="cls-5" points="258.68 214.51 267.98 193.19 211.26 206.64 258.68 214.51"/><polygon id="triangle36-261" data-name="triangle36" class="cls-5" points="489.32 98.47 465.84 132.81 498 125.41 489.32 98.47"/><polygon id="triangle36-262" data-name="triangle36" class="cls-5" points="465.84 132.81 527.32 164.22 498 125.41 465.84 132.81"/><polygon id="triangle36-263" data-name="triangle36" class="cls-5" points="527.32 164.22 562.62 161.66 498 125.41 527.32 164.22"/><polygon id="triangle36-264" data-name="triangle36" class="cls-5" points="498 125.41 562.62 161.66 591.84 117.69 498 125.41"/><polygon id="triangle36-265" data-name="triangle36" class="cls-5" points="562.62 161.66 622.74 175.84 591.84 117.69 562.62 161.66"/></g><circle class="cls-6" cx="420.17" cy="792.55" r="3.18" transform="translate(-446.39 553.49) rotate(-46.81)"/><circle class="cls-6" cx="426.97" cy="751.55" r="3.18" transform="translate(-414.33 545.46) rotate(-46.81)"/><circle class="cls-6" cx="485.57" cy="749.86" r="3.18" transform="translate(-394.61 587.63) rotate(-46.81)"/><circle class="cls-6" cx="301.84" cy="714.38" r="3.18" transform="translate(-426.69 442.42) rotate(-46.8)"/><circle class="cls-6" cx="192.57" cy="687.75" r="3.18" transform="translate(-441.76 354.39) rotate(-46.8)"/><circle class="cls-6" cx="325.77" cy="660.88" r="3.18" transform="translate(-380.13 442.95) rotate(-46.8)"/><circle class="cls-6" cx="312.98" cy="639.48" r="3.18" transform="translate(-368.58 426.95) rotate(-46.8)"/><circle class="cls-6" cx="292.79" cy="631.79" r="3.18" transform="translate(-369.35 409.81) rotate(-46.8)"/><circle class="cls-6" cx="256.83" cy="602.38" r="3.18" transform="translate(-359.22 374.21) rotate(-46.79)"/><circle class="cls-6" cx="358.53" cy="602.38" r="3.18" transform="translate(-327.17 448.45) rotate(-46.8)"/><circle class="cls-6" cx="387.97" cy="607.47" r="3.18" transform="translate(-321.59 471.52) rotate(-46.8)"/><circle class="cls-6" cx="400.79" cy="619.51" r="3.18" transform="translate(-326.34 484.74) rotate(-46.81)"/><circle class="cls-6" cx="392.11" cy="631.09" r="3.18" transform="translate(-337.5 481.98) rotate(-46.8)"/><circle class="cls-6" cx="407.74" cy="640.13" r="3.18" transform="translate(-339.16 496.23) rotate(-46.8)"/><circle class="cls-6" cx="410.97" cy="620.34" r="3.18" transform="translate(-323.72 492.34) rotate(-46.8)"/><circle class="cls-6" cx="417.99" cy="609.36" r="3.18" transform="translate(-313.48 493.92) rotate(-46.8)"/><circle class="cls-6" cx="402.86" cy="590.45" r="3.18" transform="translate(-304.48 476.96) rotate(-46.8)"/><circle class="cls-6" cx="456.07" cy="651.69" r="3.18" transform="translate(-332.35 535.16) rotate(-46.81)"/><circle class="cls-6" cx="468.62" cy="637.16" r="3.18" transform="translate(-317.79 539.63) rotate(-46.8)"/><circle class="cls-6" cx="429.55" cy="576.04" r="3.18" transform="translate(-285.57 491.95) rotate(-46.81)"/><circle class="cls-6" cx="429.33" cy="569.27" r="3.18" transform="translate(-280.7 489.66) rotate(-46.81)"/><circle class="cls-6" cx="394.32" cy="551.69" r="3.18" transform="translate(-278.92 458.55) rotate(-46.8)"/><circle class="cls-6" cx="402.14" cy="521.18" r="3.18" transform="translate(-254.21 454.58) rotate(-46.8)"/><circle class="cls-6" cx="417.04" cy="499.47" r="3.18" transform="translate(-233.69 458.64) rotate(-46.8)"/><circle class="cls-6" cx="357.08" cy="467.6" r="3.18" transform="translate(-229.37 404.84) rotate(-46.8)"/><circle class="cls-6" cx="315.17" cy="462.07" r="3.18" transform="translate(-238.55 372.55) rotate(-46.8)"/><circle class="cls-6" cx="286.16" cy="469.59" r="3.18" transform="translate(-253.19 353.76) rotate(-46.8)"/><circle class="cls-6" cx="285.01" cy="497.64" r="3.18" transform="translate(-273.99 361.75) rotate(-46.8)"/><circle class="cls-6" cx="224.14" cy="539.14" r="3.18" transform="translate(-323.44 330.47) rotate(-46.8)"/><circle class="cls-6" cx="180.72" cy="524.68" r="3.18" transform="translate(-326.6 294.28) rotate(-46.8)"/><circle class="cls-6" cx="194.84" cy="493.3" r="3.18" transform="translate(-299.29 294.7) rotate(-46.8)"/><circle class="cls-6" cx="252.7" cy="484.21" r="3.18" transform="translate(-274.42 334.05) rotate(-46.81)"/><circle class="cls-6" cx="256.12" cy="433.87" r="3.18" transform="translate(-236.63 320.63) rotate(-46.8)"/><circle class="cls-6" cx="293.19" cy="423.58" r="3.18" transform="translate(-217.43 344.38) rotate(-46.8)"/><circle class="cls-6" cx="475.78" cy="471.94" r="3.18" transform="translate(-195.09 492.81) rotate(-46.81)"/><circle class="cls-6" cx="452.75" cy="438.1" r="3.18" transform="translate(-177.68 465.27) rotate(-46.8)"/><circle class="cls-6" cx="452.85" cy="405.31" r="3.18" transform="translate(-153.75 455) rotate(-46.8)"/><circle class="cls-6" cx="514.36" cy="442.53" r="3.18" transform="translate(-161.47 511.65) rotate(-46.81)"/><circle class="cls-6" cx="549.8" cy="450.31" r="3.18" transform="translate(-155.96 539.91) rotate(-46.8)"/><circle class="cls-6" cx="574.04" cy="471.19" r="3.18" transform="translate(-163.54 564.17) rotate(-46.8)"/><circle class="cls-6" cx="592.19" cy="488.23" r="3.18" transform="translate(-170.25 582.69) rotate(-46.8)"/><circle class="cls-6" cx="576.7" cy="519.73" r="3.18" transform="translate(-198.09 581.37) rotate(-46.8)"/><circle class="cls-6" cx="541.59" cy="538.44" r="3.18" transform="translate(-222.8 561.68) rotate(-46.8)"/><circle class="cls-6" cx="553.1" cy="574.62" r="3.18" transform="translate(-245.55 581.45) rotate(-46.8)"/><circle class="cls-6" cx="531.46" cy="604.09" r="3.18" transform="translate(-273.86 575) rotate(-46.8)"/><circle class="cls-6" cx="529.08" cy="594.34" r="3.18" transform="translate(-267.5 570.25) rotate(-46.8)"/><circle class="cls-6" cx="512.01" cy="565.29" r="3.18" transform="translate(-251.71 548.55) rotate(-46.8)"/><circle class="cls-6" cx="483.81" cy="521.76" r="3.18" transform="translate(-228.87 514.34) rotate(-46.8)"/><circle class="cls-6" cx="481.07" cy="501.34" r="3.18" transform="translate(-214.85 505.83) rotate(-46.8)"/><circle class="cls-6" cx="531.35" cy="638.4" r="3.18" transform="translate(-298.89 585.66) rotate(-46.79)"/><circle class="cls-6" cx="551.66" cy="645.61" r="3.18" transform="translate(-297.75 602.79) rotate(-46.8)"/><circle class="cls-6" cx="583.29" cy="618.93" r="3.18" transform="translate(-268.33 617.48) rotate(-46.8)"/><circle class="cls-6" cx="637.18" cy="570.88" r="3.18" transform="translate(-216.29 641.69) rotate(-46.81)"/><circle class="cls-6" cx="674" cy="568.13" r="3.18" transform="translate(-202.68 667.58) rotate(-46.8)"/><circle class="cls-6" cx="717.23" cy="600.48" r="3.18" transform="translate(-212.62 709.34) rotate(-46.8)"/><circle class="cls-6" cx="696.36" cy="513.7" r="3.18" transform="translate(-155.95 666.71) rotate(-46.8)"/><circle class="cls-6" cx="686.56" cy="510.13" r="3.18" transform="translate(-156.45 658.38) rotate(-46.8)"/><circle class="cls-6" cx="680.33" cy="520.26" r="3.18" transform="translate(-165.79 657.08) rotate(-46.8)"/><circle class="cls-6" cx="636.17" cy="485.36" r="3.18" transform="translate(-154.27 613.93) rotate(-46.8)"/><circle class="cls-6" cx="649.33" cy="456.38" r="3.18" transform="translate(-129 614.34) rotate(-46.8)"/><circle class="cls-6" cx="646.17" cy="439.32" r="3.18" transform="translate(-117.55 606.69) rotate(-46.8)"/><circle class="cls-6" cx="688.99" cy="441" r="3.18" transform="translate(-105.27 638.44) rotate(-46.8)"/><circle class="cls-6" cx="719.9" cy="417.42" r="3.18" transform="translate(-78.32 653.54) rotate(-46.8)"/><circle class="cls-6" cx="686.35" cy="366.18" r="3.18" transform="translate(-51.57 612.87) rotate(-46.8)"/><circle class="cls-6" cx="675.56" cy="360.74" r="3.18" transform="translate(-51.01 603.29) rotate(-46.8)"/><circle class="cls-6" cx="744.13" cy="321.78" r="3.18" transform="translate(-0.96 641.03) rotate(-46.8)"/><circle class="cls-6" cx="796.14" cy="305.87" r="3.18" transform="translate(27.02 673.88) rotate(-46.8)"/><circle class="cls-6" cx="795.45" cy="374.32" r="3.18" transform="translate(-23.09 694.97) rotate(-46.8)"/><circle class="cls-6" cx="770.71" cy="345.8" r="3.18" transform="translate(-10.12 667.9) rotate(-46.8)"/><circle class="cls-6" cx="735.26" cy="399.89" r="3.18" transform="translate(-60.68 659.26) rotate(-46.81)"/><circle class="cls-6" cx="779.3" cy="417.76" r="3.18" transform="translate(-59.87 696.84) rotate(-46.8)"/><circle class="cls-6" cx="826.68" cy="382.38" r="3.18" transform="translate(-19.08 720.35) rotate(-46.8)"/><circle class="cls-6" cx="776.87" cy="457.15" r="3.18" transform="translate(-89.31 707.62) rotate(-46.8)"/><circle class="cls-6" cx="768.98" cy="450.35" r="3.18" transform="translate(-86.86 699.66) rotate(-46.8)"/><circle class="cls-6" cx="762.52" cy="467.77" r="3.18" transform="translate(-101.61 700.41) rotate(-46.8)"/><circle class="cls-6" cx="753.9" cy="473.43" r="3.18" transform="translate(-108.43 695.99) rotate(-46.8)"/><circle class="cls-6" cx="658.27" cy="360.48" r="3.18" transform="translate(-56.26 590.64) rotate(-46.8)"/><circle class="cls-6" cx="603.95" cy="351.76" r="3.18" transform="translate(-67.05 548.26) rotate(-46.8)"/><circle class="cls-6" cx="542.06" cy="345.32" r="3.18" transform="translate(-81.87 501.14) rotate(-46.8)"/><circle class="cls-6" cx="562.85" cy="387.39" r="3.18" transform="translate(-106 529.5) rotate(-46.8)"/><circle class="cls-6" cx="472.33" cy="339.04" r="3.18" transform="translate(-99.29 448.33) rotate(-46.8)"/><circle class="cls-6" cx="484.99" cy="325.55" r="3.18" transform="translate(-85.47 453.27) rotate(-46.8)"/><circle class="cls-6" cx="502.16" cy="315.37" r="3.18" transform="translate(-72.64 462.54) rotate(-46.8)"/><circle class="cls-6" cx="571.44" cy="288.35" r="3.18" transform="translate(-31.07 504.59) rotate(-46.8)"/><circle class="cls-6" cx="611.95" cy="300.07" r="3.18" transform="translate(-26.84 537.82) rotate(-46.8)"/><circle class="cls-6" cx="609.18" cy="207.28" r="3.18" transform="translate(39.91 506.47) rotate(-46.8)"/><circle class="cls-6" cx="562.89" cy="163.8" r="3.18" transform="translate(57.04 459.07) rotate(-46.8)"/><circle class="cls-6" cx="592.99" cy="120.65" r="3.18" transform="translate(97.95 467.35) rotate(-46.8)"/><circle class="cls-6" cx="527.53" cy="52.61" r="3.18" transform="translate(126.92 398.2) rotate(-46.8)"/><circle class="cls-6" cx="623.89" cy="178.8" r="3.18" transform="translate(65.35 508.27) rotate(-46.8)"/><circle class="cls-6" cx="660.13" cy="209.08" r="3.18" transform="matrix(0.68, -0.73, 0.73, 0.68, 54.71, 544.25)"/><circle class="cls-6" cx="552.03" cy="207.16" r="3.18" transform="translate(22.01 464.87) rotate(-46.81)"/><circle class="cls-6" cx="494.52" cy="225.51" r="3.18" transform="translate(-9.54 428.67) rotate(-46.8)"/><circle class="cls-6" cx="480.17" cy="218.62" r="3.18" transform="translate(-9.03 416.06) rotate(-46.8)"/><circle class="cls-6" cx="528.47" cy="167.19" r="3.18" transform="translate(43.7 435.03) rotate(-46.8)"/><circle class="cls-6" cx="498.65" cy="128.89" r="3.18" transform="translate(62.22 401.23) rotate(-46.8)"/><circle class="cls-6" cx="466.99" cy="135.77" r="3.18" transform="translate(47.21 380.31) rotate(-46.8)"/><circle class="cls-6" cx="459.52" cy="93.52" r="3.18" transform="translate(75.64 361.52) rotate(-46.8)"/><circle class="cls-6" cx="475.67" cy="66.98" r="3.18" transform="translate(100.09 364.94) rotate(-46.8)"/><circle class="cls-6" cx="489.88" cy="100.88" r="3.18" transform="translate(79.85 385.98) rotate(-46.8)"/><circle class="cls-6" cx="464.49" cy="35.7" r="3.18" transform="translate(119.4 346.94) rotate(-46.81)"/><circle class="cls-6" cx="444.02" cy="6.14" r="3.18" transform="translate(134.45 322.66) rotate(-46.8)"/><circle class="cls-6" cx="404.19" cy="60.22" r="3.18" transform="translate(82.45 310.67) rotate(-46.8)"/><circle class="cls-6" cx="365.6" cy="49.96" r="3.18" transform="translate(77.79 279.33) rotate(-46.8)"/><circle class="cls-6" cx="382.61" cy="105.39" r="3.18" transform="translate(42.74 309.23) rotate(-46.81)"/><circle class="cls-6" cx="364.48" cy="107.16" r="3.18" transform="translate(35.73 296.56) rotate(-46.8)"/><circle class="cls-6" cx="353.1" cy="166" r="3.18" transform="translate(-10.77 306.81) rotate(-46.8)"/><circle class="cls-6" cx="378.2" cy="209.31" r="3.18" transform="translate(-34.42 338.77) rotate(-46.8)"/><circle class="cls-6" cx="339.94" cy="227.87" r="3.18" transform="translate(-60.02 316.72) rotate(-46.8)"/><circle class="cls-6" cx="326.25" cy="253.54" r="3.18" transform="translate(-83.05 314.87) rotate(-46.8)"/><circle class="cls-6" cx="355.94" cy="234.54" r="3.18" transform="translate(-59.84 330.47) rotate(-46.8)"/><circle class="cls-6" cx="269.13" cy="196.15" r="3.18" transform="translate(-59.23 255.11) rotate(-46.8)"/><circle class="cls-6" cx="213.27" cy="210.4" r="3.18" transform="translate(-87.25 218.9) rotate(-46.81)"/><circle class="cls-6" cx="220.95" cy="244.86" r="3.18" transform="translate(-109.94 235.36) rotate(-46.8)"/><circle class="cls-6" cx="198.84" cy="291.76" r="3.18" transform="translate(-151.1 234.04) rotate(-46.8)"/><circle class="cls-6" cx="154.23" cy="247.04" r="3.18" transform="matrix(0.68, -0.73, 0.73, 0.68, -132.58, 187.39)"/><circle class="cls-6" cx="166.46" cy="292.36" r="3.18" transform="translate(-161.76 210.63) rotate(-46.8)"/><circle class="cls-6" cx="162.21" cy="340.05" r="3.18" transform="translate(-197.85 222.53) rotate(-46.8)"/><circle class="cls-6" cx="124.9" cy="362.33" r="3.18" transform="translate(-225.87 202.38) rotate(-46.8)"/><circle class="cls-6" cx="84.46" cy="404.22" r="3.18" transform="translate(-269.18 186.14) rotate(-46.8)"/><circle class="cls-6" cx="102.05" cy="365.64" r="3.18" transform="translate(-235.49 186.77) rotate(-46.8)"/><circle class="cls-6" cx="93.47" cy="361.94" r="3.18" transform="translate(-235.51 179.37) rotate(-46.8)"/><circle class="cls-6" cx="84.31" cy="301.66" r="3.18" transform="translate(-194.45 153.65) rotate(-46.8)"/><circle class="cls-6" cx="77.22" cy="318.5" r="3.18" transform="matrix(0.68, -0.73, 0.73, 0.68, -208.96, 153.8)"/><circle class="cls-6" cx="25.6" cy="363.01" r="3.18" transform="translate(-257.69 130.21) rotate(-46.8)"/><circle class="cls-6" cx="136.66" cy="451.36" r="3.18" transform="translate(-287.05 239.02) rotate(-46.8)"/><circle class="cls-6" cx="108.59" cy="504.55" r="3.18" transform="translate(-334.7 235.38) rotate(-46.8)"/><circle class="cls-6" cx="21.28" cy="395.63" r="3.18" transform="translate(-282.86 137.38) rotate(-46.81)"/><circle class="cls-6" cx="36.36" cy="414.32" r="3.18" transform="translate(-291.73 154.28) rotate(-46.81)"/><circle class="cls-6" cx="109.07" cy="495.92" r="3.18" transform="translate(-328.27 233.03) rotate(-46.81)"/><circle class="cls-6" cx="74.77" cy="460.89" r="3.18" transform="matrix(0.68, -0.73, 0.73, 0.68, -313.56, 196.97)"/><circle class="cls-6" cx="57.68" cy="412.9" r="3.18" transform="translate(-283.94 169.33) rotate(-46.8)"/><circle class="cls-6" cx="206.8" cy="325.88" r="3.18" transform="translate(-173.47 250.61) rotate(-46.8)"/><circle class="cls-6" cx="229.71" cy="320.75" r="3.18" transform="translate(-162.49 265.65) rotate(-46.8)"/><circle class="cls-6" cx="249.02" cy="331.7" r="3.18" transform="translate(-164.39 283.2) rotate(-46.8)"/><circle class="cls-6" cx="269.11" cy="351.16" r="3.18" transform="translate(-172.24 303.98) rotate(-46.8)"/><circle class="cls-6" cx="306.06" cy="279.69" r="3.18" transform="translate(-108.48 308.4) rotate(-46.8)"/><circle class="cls-6" cx="285.4" cy="277.2" r="3.18" transform="translate(-113.18 292.53) rotate(-46.8)"/><circle class="cls-6" cx="316.45" cy="305.42" r="3.18" transform="translate(-123.96 324.06) rotate(-46.8)"/><circle class="cls-6" cx="339.26" cy="298.64" r="3.18" transform="translate(-111.83 338.55) rotate(-46.8)"/><circle class="cls-6" cx="349.5" cy="332.09" r="3.18" transform="translate(-132.98 356.57) rotate(-46.8)"/><circle class="cls-6" cx="338.24" cy="346.55" r="3.18" transform="translate(-147.07 352.92) rotate(-46.8)"/><circle class="cls-6" cx="258.72" cy="218.65" r="3.18" transform="translate(-78.92 254.62) rotate(-46.8)"/><circle class="cls-6" cx="385.21" cy="249.71" r="3.18" transform="translate(-61.66 356.61) rotate(-46.8)"/><circle class="cls-6" cx="318.26" cy="113.21" r="3.18" transform="translate(16.72 264.76) rotate(-46.8)"/><circle class="cls-6" cx="282.82" cy="47.66" r="3.18" transform="translate(53.33 218.25) rotate(-46.8)"/><circle class="cls-6" cx="616.92" cy="316.96" r="3.18" transform="translate(-37.58 546.77) rotate(-46.8)"/><circle class="cls-6" cx="448.95" cy="304.4" r="3.18" transform="translate(-81.41 420.36) rotate(-46.8)"/><circle class="cls-6" cx="574.55" cy="691.53" r="3.18" transform="translate(-324.01 634.1) rotate(-46.81)"/><circle class="cls-6" cx="553.11" cy="707.11" r="3.18" transform="translate(-342.12 623.24) rotate(-46.8)"/><circle class="cls-6" cx="539.83" cy="695.57" r="3.18" transform="translate(-337.9 609.92) rotate(-46.8)"/><circle class="cls-6" cx="559.56" cy="740.42" r="3.18" transform="translate(-364.37 638.55) rotate(-46.8)"/><polyline class="cls-5" points="317.88 109.44 281.08 44.7 366.52 46.47"/><line class="cls-5" x1="35.19" y1="411.12" x2="0.4" y2="456.77"/></g></g></svg>