<svg id="Layer_1" data-name="Layer 1" xmlns="http://www.w3.org/2000/svg" xmlns:xlink="http://www.w3.org/1999/xlink" viewBox="0 0 832.81 739"><defs><style>.cls-1,.cls-6{fill:none;}.cls-2{opacity:0.05;}.cls-3{clip-path:url(#clip-path);}.cls-4{fill:url(#Fading_Sky);}.cls-5{opacity:0.95;}.cls-6{stroke:#231f20;stroke-miterlimit:10;}.cls-7{fill:#231f20;}.cls-8{fill:#fff200;}.cls-9{fill:#D3AC2B;}</style><clipPath id="clip-path" transform="translate(2.95 -2.96)"><rect class="cls-1" width="836.53" height="594.74"/></clipPath><linearGradient id="Fading_Sky" y1="301.51" x2="829.63" y2="301.51" gradientUnits="userSpaceOnUse"><stop offset="0" stop-color="#CBD0D8"/><stop offset="1" stop-color="#CBD0D8" stop-opacity="0"/></linearGradient></defs><title>network-graph-01</title><g class="cls-2"><g class="cls-3"><polyline class="cls-4" points="0 461.51 26.54 394.85 28.55 360.05 94.24 361.3 105 362.68 127.85 359.37 77.85 313.36 84.94 296.52 155 246.4 213.89 205.27 269.76 191.01 319.03 112.57 278.29 42.44 366.37 49.31 404.96 59.58 444.79 5.5 528.16 47.48 495 95.61 501.6 125.93 595.93 117.69 626.84 175.84 663.08 206.12 744.9 321.14 799.09 302.91 829.63 379.42 720.18 597.52 151.32 597.52 109.36 503.91 112.02 492.96 77.72 457.93 39.29 411.13 4.49 456.77"/><g class="cls-5"><polygon id="triangle36" class="cls-6" points="574.39 285.39 606.91 348.81 619.87 314 574.39 285.39"/><polygon id="triangle36-2" data-name="triangle36" class="cls-6" points="451.66 301.69 487.35 322.05 475.28 336.07 451.66 301.69"/><polygon id="triangle36-3" data-name="triangle36" class="cls-6" points="619.87 314 606.91 348.81 661.22 357.52 619.87 314"/><polygon id="triangle36-4" data-name="triangle36" class="cls-6" points="606.91 348.81 649.99 437.18 661.22 357.52 606.91 348.81"/><polygon id="triangle36-5" data-name="triangle36" class="cls-6" points="342.89 224.91 358.13 230.87 381.15 206.35 342.89 224.91"/><polygon id="triangle36-6" data-name="triangle36" class="cls-6" points="619.87 314 661.22 357.52 677.57 358.78 619.87 314"/><polygon id="triangle36-7" data-name="triangle36" class="cls-6" points="471.56 634.2 459.02 648.73 420.94 606.4 471.56 634.2"/><polygon id="triangle36-8" data-name="triangle36" class="cls-6" points="475.28 336.07 518.31 438.5 565.79 384.43 475.28 336.07"/><polygon id="triangle36-9" data-name="triangle36" class="cls-6" points="606.91 348.81 649.99 437.18 565.79 384.43 606.91 348.81"/><polygon id="triangle36-10" data-name="triangle36" class="cls-6" points="576.99 468.23 649.99 437.18 565.79 384.43 576.99 468.23"/><polygon id="triangle36-11" data-name="triangle36" class="cls-6" points="451.66 301.69 487.35 322.05 505.73 312.99 451.66 301.69"/><polygon id="triangle36-12" data-name="triangle36" class="cls-6" points="342.79 296.23 451.66 301.69 388.62 246.25 342.79 296.23"/><polygon id="triangle36-13" data-name="triangle36" class="cls-6" points="358.13 230.87 381.15 206.35 388.62 246.25 358.13 230.87"/><polygon id="triangle36-14" data-name="triangle36" class="cls-6" points="368.55 47 385.56 102.43 406.37 58.08 368.55 47"/><polygon id="triangle36-15" data-name="triangle36" class="cls-6" points="87.25 298.7 79.61 315.01 127.85 359.37 87.25 298.7"/><polygon id="triangle36-16" data-name="triangle36" class="cls-6" points="87.25 298.7 164.6 336.56 127.85 359.37 87.25 298.7"/><polygon id="triangle36-17" data-name="triangle36" class="cls-6" points="385.56 102.43 469.94 132.81 356.63 163.59 385.56 102.43"/><polygon id="triangle36-18" data-name="triangle36" class="cls-6" points="342.89 224.91 381.15 206.35 356.63 163.59 342.89 224.91"/><polygon id="triangle36-19" data-name="triangle36" class="cls-6" points="381.15 206.35 469.94 132.81 356.63 163.59 381.15 206.35"/><polygon id="triangle36-20" data-name="triangle36" class="cls-6" points="451.66 301.69 505.73 312.99 497.47 222.55 451.66 301.69"/><polygon id="triangle36-21" data-name="triangle36" class="cls-6" points="505.73 312.99 574.39 285.39 497.47 222.55 505.73 312.99"/><polygon id="triangle36-22" data-name="triangle36" class="cls-6" points="746.98 318.72 799.6 302.37 773.66 342.84 746.98 318.72"/><polygon id="triangle36-23" data-name="triangle36" class="cls-6" points="799.6 302.37 798.23 371.54 773.66 342.84 799.6 302.37"/><polygon id="triangle36-24" data-name="triangle36" class="cls-6" points="661.22 357.52 677.57 358.78 691.93 438.04 661.22 357.52"/><polygon id="triangle36-25" data-name="triangle36" class="cls-6" points="661.22 357.52 649.99 437.18 691.93 438.04 661.22 357.52"/><polygon id="triangle36-26" data-name="triangle36" class="cls-6" points="87.25 298.7 157.17 244.09 168.84 288.86 87.25 298.7"/><polygon id="triangle36-27" data-name="triangle36" class="cls-6" points="87.25 298.7 164.6 336.56 168.84 288.86 87.25 298.7"/><polygon id="triangle36-28" data-name="triangle36" class="cls-6" points="164.6 336.56 209.27 324.01 168.84 288.86 164.6 336.56"/><polygon id="triangle36-29" data-name="triangle36" class="cls-6" points="105.64 362 127.85 359.37 87.41 401.26 105.64 362"/><polygon id="triangle36-30" data-name="triangle36" class="cls-6" points="518.31 438.5 484.6 498.92 545.12 536.02 518.31 438.5"/><polygon id="triangle36-31" data-name="triangle36" class="cls-6" points="484.6 498.92 486.75 518.8 545.12 536.02 484.6 498.92"/><polygon id="triangle36-32" data-name="triangle36" class="cls-6" points="746.98 318.72 773.66 342.84 738.21 396.93 746.98 318.72"/><polygon id="triangle36-33" data-name="triangle36" class="cls-6" points="773.66 342.84 798.23 371.54 738.21 396.93 773.66 342.84"/><polygon id="triangle36-34" data-name="triangle36" class="cls-6" points="164.6 336.56 209.27 324.01 259.07 430.91 164.6 336.56"/><polygon id="triangle36-35" data-name="triangle36" class="cls-6" points="259.07 430.91 289.11 466.63 296.14 420.62 259.07 430.91"/><polygon id="triangle36-36" data-name="triangle36" class="cls-6" points="289.11 466.63 317.52 458.55 296.14 420.62 289.11 466.63"/><polygon id="triangle36-37" data-name="triangle36" class="cls-6" points="317.52 458.55 360.03 464.64 296.14 420.62 317.52 458.55"/><polygon id="triangle36-38" data-name="triangle36" class="cls-6" points="388.62 246.25 342.79 296.23 328.91 250.31 388.62 246.25"/><polygon id="triangle36-39" data-name="triangle36" class="cls-6" points="342.89 224.91 358.13 230.87 328.91 250.31 342.89 224.91"/><polygon id="triangle36-40" data-name="triangle36" class="cls-6" points="358.13 230.87 388.62 246.25 328.91 250.31 358.13 230.87"/><polygon id="triangle36-41" data-name="triangle36" class="cls-6" points="469.94 132.81 531.41 164.22 483.12 215.66 469.94 132.81"/><polygon id="triangle36-42" data-name="triangle36" class="cls-6" points="388.62 246.25 451.66 301.69 483.12 215.66 388.62 246.25"/><polygon id="triangle36-43" data-name="triangle36" class="cls-6" points="531.41 164.22 497.47 222.55 483.12 215.66 531.41 164.22"/><polygon id="triangle36-44" data-name="triangle36" class="cls-6" points="497.47 222.55 451.66 301.69 483.12 215.66 497.47 222.55"/><polygon id="triangle36-45" data-name="triangle36" class="cls-6" points="381.15 206.35 469.94 132.81 483.12 215.66 381.15 206.35"/><polygon id="triangle36-46" data-name="triangle36" class="cls-6" points="381.15 206.35 388.62 246.25 483.12 215.66 381.15 206.35"/><polygon id="triangle36-47" data-name="triangle36" class="cls-6" points="479.14 63.46 493.41 98.47 530.48 49.65 479.14 63.46"/><polygon id="triangle36-48" data-name="triangle36" class="cls-6" points="321.97 109.44 356.63 163.59 272.07 193.19 321.97 109.44"/><polygon id="triangle36-49" data-name="triangle36" class="cls-6" points="356.63 163.59 342.89 224.91 272.07 193.19 356.63 163.59"/><polygon id="triangle36-50" data-name="triangle36" class="cls-6" points="342.89 224.91 328.91 250.31 272.07 193.19 342.89 224.91"/><polygon id="triangle36-51" data-name="triangle36" class="cls-6" points="487.35 322.05 475.28 336.07 545.01 342.36 487.35 322.05"/><polygon id="triangle36-52" data-name="triangle36" class="cls-6" points="487.35 322.05 505.73 312.99 545.01 342.36 487.35 322.05"/><polygon id="triangle36-53" data-name="triangle36" class="cls-6" points="475.28 336.07 565.79 384.43 545.01 342.36 475.28 336.07"/><polygon id="triangle36-54" data-name="triangle36" class="cls-6" points="505.73 312.99 574.39 285.39 545.01 342.36 505.73 312.99"/><polygon id="triangle36-55" data-name="triangle36" class="cls-6" points="574.39 285.39 606.91 348.81 545.01 342.36 574.39 285.39"/><polygon id="triangle36-56" data-name="triangle36" class="cls-6" points="565.79 384.43 606.91 348.81 545.01 342.36 565.79 384.43"/><polygon id="triangle36-57" data-name="triangle36" class="cls-6" points="360.03 464.64 397.4 548.59 405.09 518.22 360.03 464.64"/><polygon id="triangle36-58" data-name="triangle36" class="cls-6" points="397.4 548.59 432.28 566.3 405.09 518.22 397.4 548.59"/><polygon id="triangle36-59" data-name="triangle36" class="cls-6" points="518.31 438.5 484.6 498.92 478.73 468.98 518.31 438.5"/><polygon id="triangle36-60" data-name="triangle36" class="cls-6" points="403.74 616.55 420.94 606.4 414.72 616.53 403.74 616.55"/><polygon id="triangle36-61" data-name="triangle36" class="cls-6" points="420.94 606.4 459.02 648.73 414.72 616.53 420.94 606.4"/><polygon id="triangle36-62" data-name="triangle36" class="cls-6" points="738.21 396.93 798.23 371.54 782.55 415.08 738.21 396.93"/><polygon id="triangle36-63" data-name="triangle36" class="cls-6" points="289.11 466.63 317.52 458.55 289.02 494.74 289.11 466.63"/><polygon id="triangle36-64" data-name="triangle36" class="cls-6" points="317.52 458.55 360.03 464.64 289.02 494.74 317.52 458.55"/><polygon id="triangle36-65" data-name="triangle36" class="cls-6" points="360.03 464.64 397.4 548.59 289.02 494.74 360.03 464.64"/><polygon id="triangle36-66" data-name="triangle36" class="cls-6" points="576.99 468.23 649.99 437.18 652.28 453.42 576.99 468.23"/><polygon id="triangle36-67" data-name="triangle36" class="cls-6" points="649.99 437.18 691.93 438.04 652.28 453.42 649.99 437.18"/><polygon id="triangle36-68" data-name="triangle36" class="cls-6" points="691.93 438.04 689.5 507.17 652.28 453.42 691.93 438.04"/><polygon id="triangle36-69" data-name="triangle36" class="cls-6" points="198.49 489.59 227.09 536.18 183.67 521.72 198.49 489.59"/><polygon id="triangle36-70" data-name="triangle36" class="cls-6" points="227.09 536.18 195.51 684.79 183.67 521.72 227.09 536.18"/><polygon id="triangle36-71" data-name="triangle36" class="cls-6" points="691.93 438.04 757.62 469.65 722.85 414.45 691.93 438.04"/><polygon id="triangle36-72" data-name="triangle36" class="cls-6" points="738.21 396.93 782.55 415.08 722.85 414.45 738.21 396.93"/><polygon id="triangle36-73" data-name="triangle36" class="cls-6" points="493.41 98.47 469.94 132.81 462.24 90.81 493.41 98.47"/><polygon id="triangle36-74" data-name="triangle36" class="cls-6" points="406.37 58.08 385.56 102.43 462.24 90.81 406.37 58.08"/><polygon id="triangle36-75" data-name="triangle36" class="cls-6" points="406.37 58.08 479.14 63.46 462.24 90.81 406.37 58.08"/><polygon id="triangle36-76" data-name="triangle36" class="cls-6" points="385.56 102.43 469.94 132.81 462.24 90.81 385.56 102.43"/><polygon id="triangle36-77" data-name="triangle36" class="cls-6" points="479.14 63.46 493.41 98.47 462.24 90.81 479.14 63.46"/><polygon id="triangle36-78" data-name="triangle36" class="cls-6" points="259.07 430.91 278.92 473.98 286.18 468.58 259.07 430.91"/><polygon id="triangle36-79" data-name="triangle36" class="cls-6" points="259.07 430.91 289.11 466.63 286.18 468.58 259.07 430.91"/><polygon id="triangle36-80" data-name="triangle36" class="cls-6" points="278.92 473.98 289.02 494.74 286.18 468.58 278.92 473.98"/><polygon id="triangle36-81" data-name="triangle36" class="cls-6" points="289.11 466.63 289.02 494.74 286.18 468.58 289.11 466.63"/><polygon id="triangle36-82" data-name="triangle36" class="cls-6" points="198.49 489.59 259.07 430.91 139.61 448.4 198.49 489.59"/><polygon id="triangle36-83" data-name="triangle36" class="cls-6" points="198.49 489.59 183.67 521.72 139.61 448.4 198.49 489.59"/><polygon id="triangle36-84" data-name="triangle36" class="cls-6" points="87.41 401.26 127.85 359.37 139.61 448.4 87.41 401.26"/><polygon id="triangle36-85" data-name="triangle36" class="cls-6" points="127.85 359.37 164.6 336.56 139.61 448.4 127.85 359.37"/><polygon id="triangle36-86" data-name="triangle36" class="cls-6" points="164.6 336.56 259.07 430.91 139.61 448.4 164.6 336.56"/><polygon id="triangle36-87" data-name="triangle36" class="cls-6" points="531.41 164.22 497.47 222.55 555.71 204.89 531.41 164.22"/><polygon id="triangle36-88" data-name="triangle36" class="cls-6" points="531.41 164.22 566.71 161.66 555.71 204.89 531.41 164.22"/><polygon id="triangle36-89" data-name="triangle36" class="cls-6" points="497.47 222.55 574.39 285.39 555.71 204.89 497.47 222.55"/><polygon id="triangle36-90" data-name="triangle36" class="cls-6" points="566.71 161.66 612.84 205.92 555.71 204.89 566.71 161.66"/><polygon id="triangle36-91" data-name="triangle36" class="cls-6" points="612.84 205.92 574.39 285.39 555.71 204.89 612.84 205.92"/><polygon id="triangle36-92" data-name="triangle36" class="cls-6" points="223.89 241.9 232.66 317.79 288.06 273.97 223.89 241.9"/><polygon id="triangle36-93" data-name="triangle36" class="cls-6" points="209.27 324.01 232.66 317.79 252.14 328.56 209.27 324.01"/><polygon id="triangle36-94" data-name="triangle36" class="cls-6" points="232.66 317.79 288.06 273.97 252.14 328.56 232.66 317.79"/><polygon id="triangle36-95" data-name="triangle36" class="cls-6" points="288.06 273.97 319.4 302.46 252.14 328.56 288.06 273.97"/><polygon id="triangle36-96" data-name="triangle36" class="cls-6" points="397.4 548.59 432.28 566.3 432.49 573.08 397.4 548.59"/><polygon id="triangle36-97" data-name="triangle36" class="cls-6" points="420.94 606.4 471.56 634.2 432.49 573.08 420.94 606.4"/><polygon id="triangle36-98" data-name="triangle36" class="cls-6" points="565.79 384.43 518.31 438.5 552.75 447.35 565.79 384.43"/><polygon id="triangle36-99" data-name="triangle36" class="cls-6" points="565.79 384.43 576.99 468.23 552.75 447.35 565.79 384.43"/><polygon id="triangle36-100" data-name="triangle36" class="cls-6" points="518.31 438.5 545.12 536.02 552.75 447.35 518.31 438.5"/><polygon id="triangle36-101" data-name="triangle36" class="cls-6" points="576.99 468.23 579.64 516.76 552.75 447.35 576.99 468.23"/><polygon id="triangle36-102" data-name="triangle36" class="cls-6" points="545.12 536.02 579.64 516.76 552.75 447.35 545.12 536.02"/><polygon id="triangle36-103" data-name="triangle36" class="cls-6" points="139.61 448.4 183.67 521.72 112.02 492.96 139.61 448.4"/><polygon id="triangle36-104" data-name="triangle36" class="cls-6" points="198.49 489.59 259.07 430.91 255.65 481.25 198.49 489.59"/><polygon id="triangle36-105" data-name="triangle36" class="cls-6" points="198.49 489.59 227.09 536.18 255.65 481.25 198.49 489.59"/><polygon id="triangle36-106" data-name="triangle36" class="cls-6" points="259.07 430.91 278.92 473.98 255.65 481.25 259.07 430.91"/><polygon id="triangle36-107" data-name="triangle36" class="cls-6" points="278.92 473.98 289.02 494.74 255.65 481.25 278.92 473.98"/><polygon id="triangle36-108" data-name="triangle36" class="cls-6" points="227.09 536.18 289.02 494.74 255.65 481.25 227.09 536.18"/><polygon id="triangle36-109" data-name="triangle36" class="cls-6" points="397.4 548.59 432.49 573.08 405.81 587.49 397.4 548.59"/><polygon id="triangle36-110" data-name="triangle36" class="cls-6" points="432.49 573.08 420.94 606.4 405.81 587.49 432.49 573.08"/><polygon id="triangle36-111" data-name="triangle36" class="cls-6" points="24.23 392.67 60.63 409.94 28.06 360.57 24.23 392.67"/><polygon id="triangle36-112" data-name="triangle36" class="cls-6" points="60.63 409.94 87.41 401.26 28.06 360.57 60.63 409.94"/><polygon id="triangle36-113" data-name="triangle36" class="cls-6" points="640.13 567.92 577.37 688.45 586.24 615.97 640.13 567.92"/><polygon id="triangle36-114" data-name="triangle36" class="cls-6" points="319.4 302.46 342.79 296.23 352.62 328.95 319.4 302.46"/><polygon id="triangle36-115" data-name="triangle36" class="cls-6" points="342.79 296.23 451.66 301.69 352.62 328.95 342.79 296.23"/><polygon id="triangle36-116" data-name="triangle36" class="cls-6" points="451.66 301.69 475.28 336.07 352.62 328.95 451.66 301.69"/><polygon id="triangle36-117" data-name="triangle36" class="cls-6" points="722.85 414.45 782.55 415.08 780.45 453.51 722.85 414.45"/><polygon id="triangle36-118" data-name="triangle36" class="cls-6" points="722.85 414.45 757.62 469.65 780.45 453.51 722.85 414.45"/><polygon id="triangle36-119" data-name="triangle36" class="cls-6" points="289.02 494.74 397.4 548.59 361.03 599 289.02 494.74"/><polygon id="triangle36-120" data-name="triangle36" class="cls-6" points="397.4 548.59 405.81 587.49 361.03 599 397.4 548.59"/><polygon id="triangle36-121" data-name="triangle36" class="cls-6" points="315.93 636.51 328.72 657.92 361.03 599 315.93 636.51"/><polygon id="triangle36-122" data-name="triangle36" class="cls-6" points="328.72 657.92 395.05 628.13 361.03 599 328.72 657.92"/><polygon id="triangle36-123" data-name="triangle36" class="cls-6" points="368.55 47 321.97 109.44 367.44 104.21 368.55 47"/><polygon id="triangle36-124" data-name="triangle36" class="cls-6" points="368.55 47 385.56 102.43 367.44 104.21 368.55 47"/><polygon id="triangle36-125" data-name="triangle36" class="cls-6" points="321.97 109.44 356.63 163.59 367.44 104.21 321.97 109.44"/><polygon id="triangle36-126" data-name="triangle36" class="cls-6" points="385.56 102.43 356.63 163.59 367.44 104.21 385.56 102.43"/><polygon id="triangle36-127" data-name="triangle36" class="cls-6" points="545.12 536.02 579.64 516.76 555.76 571.38 545.12 536.02"/><polygon id="triangle36-128" data-name="triangle36" class="cls-6" points="579.64 516.76 640.13 567.92 555.76 571.38 579.64 516.76"/><polygon id="triangle36-129" data-name="triangle36" class="cls-6" points="586.24 615.97 640.13 567.92 555.76 571.38 586.24 615.97"/><polygon id="triangle36-130" data-name="triangle36" class="cls-6" points="352.62 328.95 475.28 336.07 455.8 402.35 352.62 328.95"/><polygon id="triangle36-131" data-name="triangle36" class="cls-6" points="475.28 336.07 518.31 438.5 455.8 402.35 475.28 336.07"/><polygon id="triangle36-132" data-name="triangle36" class="cls-6" points="223.89 241.9 288.06 273.97 262.77 214.51 223.89 241.9"/><polygon id="triangle36-133" data-name="triangle36" class="cls-6" points="288.06 273.97 328.91 250.31 262.77 214.51 288.06 273.97"/><polygon id="triangle36-134" data-name="triangle36" class="cls-6" points="446.96 3.18 406.37 58.08 467.9 32.24 446.96 3.18"/><polygon id="triangle36-135" data-name="triangle36" class="cls-6" points="446.96 3.18 530.48 49.65 467.9 32.24 446.96 3.18"/><polygon id="triangle36-136" data-name="triangle36" class="cls-6" points="406.37 58.08 479.14 63.46 467.9 32.24 406.37 58.08"/><polygon id="triangle36-137" data-name="triangle36" class="cls-6" points="479.14 63.46 530.48 49.65 467.9 32.24 479.14 63.46"/><polygon id="triangle36-138" data-name="triangle36" class="cls-6" points="319.4 302.46 342.79 296.23 308.15 275.92 319.4 302.46"/><polygon id="triangle36-139" data-name="triangle36" class="cls-6" points="288.06 273.97 328.91 250.31 308.15 275.92 288.06 273.97"/><polygon id="triangle36-140" data-name="triangle36" class="cls-6" points="328.91 250.31 342.79 296.23 308.15 275.92 328.91 250.31"/><polygon id="triangle36-141" data-name="triangle36" class="cls-6" points="432.28 566.3 432.49 573.08 514.43 561.7 432.28 566.3"/><polygon id="triangle36-142" data-name="triangle36" class="cls-6" points="432.28 566.3 486.75 518.8 514.43 561.7 432.28 566.3"/><polygon id="triangle36-143" data-name="triangle36" class="cls-6" points="432.49 573.08 471.56 634.2 514.43 561.7 432.49 573.08"/><polygon id="triangle36-144" data-name="triangle36" class="cls-6" points="486.75 518.8 545.12 536.02 514.43 561.7 486.75 518.8"/><polygon id="triangle36-145" data-name="triangle36" class="cls-6" points="545.12 536.02 555.76 571.38 514.43 561.7 545.12 536.02"/><polygon id="triangle36-146" data-name="triangle36" class="cls-6" points="471.56 634.2 531.75 591.12 514.43 561.7 471.56 634.2"/><polygon id="triangle36-147" data-name="triangle36" class="cls-6" points="531.75 591.12 555.76 571.38 514.43 561.7 531.75 591.12"/><polygon id="triangle36-148" data-name="triangle36" class="cls-6" points="471.56 634.2 531.75 591.12 534.41 601.13 471.56 634.2"/><polygon id="triangle36-149" data-name="triangle36" class="cls-6" points="471.56 634.2 534.13 635.28 534.41 601.13 471.56 634.2"/><polygon id="triangle36-150" data-name="triangle36" class="cls-6" points="531.75 591.12 555.76 571.38 534.41 601.13 531.75 591.12"/><polygon id="triangle36-151" data-name="triangle36" class="cls-6" points="555.76 571.38 586.24 615.97 534.41 601.13 555.76 571.38"/><polygon id="triangle36-152" data-name="triangle36" class="cls-6" points="534.13 635.28 586.24 615.97 534.41 601.13 534.13 635.28"/><polygon id="triangle36-153" data-name="triangle36" class="cls-6" points="28.06 360.57 87.41 401.26 96.42 358.98 28.06 360.57"/><polygon id="triangle36-154" data-name="triangle36" class="cls-6" points="105.64 362 87.41 401.26 96.42 358.98 105.64 362"/><polygon id="triangle36-155" data-name="triangle36" class="cls-6" points="360.03 464.64 405.09 518.22 419.99 496.51 360.03 464.64"/><polygon id="triangle36-156" data-name="triangle36" class="cls-6" points="405.09 518.22 432.28 566.3 419.99 496.51 405.09 518.22"/><polygon id="triangle36-157" data-name="triangle36" class="cls-6" points="478.73 468.98 484.6 498.92 419.99 496.51 478.73 468.98"/><polygon id="triangle36-158" data-name="triangle36" class="cls-6" points="484.6 498.92 486.75 518.8 419.99 496.51 484.6 498.92"/><polygon id="triangle36-159" data-name="triangle36" class="cls-6" points="432.28 566.3 486.75 518.8 419.99 496.51 432.28 566.3"/><polygon id="triangle36-160" data-name="triangle36" class="cls-6" points="677.57 358.78 746.98 318.72 689.59 363.49 677.57 358.78"/><polygon id="triangle36-161" data-name="triangle36" class="cls-6" points="677.57 358.78 691.93 438.04 689.59 363.49 677.57 358.78"/><polygon id="triangle36-162" data-name="triangle36" class="cls-6" points="746.98 318.72 738.21 396.93 689.59 363.49 746.98 318.72"/><polygon id="triangle36-163" data-name="triangle36" class="cls-6" points="691.93 438.04 722.85 414.45 689.59 363.49 691.93 438.04"/><polygon id="triangle36-164" data-name="triangle36" class="cls-6" points="738.21 396.93 722.85 414.45 689.59 363.49 738.21 396.93"/><polygon id="triangle36-165" data-name="triangle36" class="cls-6" points="612.84 205.92 574.39 285.39 614.43 297.61 612.84 205.92"/><polygon id="triangle36-166" data-name="triangle36" class="cls-6" points="612.84 205.92 663.08 206.12 614.43 297.61 612.84 205.92"/><polygon id="triangle36-167" data-name="triangle36" class="cls-6" points="574.39 285.39 619.87 314 614.43 297.61 574.39 285.39"/><polygon id="triangle36-168" data-name="triangle36" class="cls-6" points="663.08 206.12 746.98 318.72 614.43 297.61 663.08 206.12"/><polygon id="triangle36-169" data-name="triangle36" class="cls-6" points="619.87 314 677.57 358.78 614.43 297.61 619.87 314"/><polygon id="triangle36-170" data-name="triangle36" class="cls-6" points="677.57 358.78 746.98 318.72 614.43 297.61 677.57 358.78"/><polygon id="triangle36-171" data-name="triangle36" class="cls-6" points="361.03 599 405.81 587.49 391.86 603.52 361.03 599"/><polygon id="triangle36-172" data-name="triangle36" class="cls-6" points="361.03 599 395.05 628.13 391.86 603.52 361.03 599"/><polygon id="triangle36-173" data-name="triangle36" class="cls-6" points="405.81 587.49 420.94 606.4 391.86 603.52 405.81 587.49"/><polygon id="triangle36-174" data-name="triangle36" class="cls-6" points="403.74 616.55 395.05 628.13 391.86 603.52 403.74 616.55"/><polygon id="triangle36-175" data-name="triangle36" class="cls-6" points="403.74 616.55 420.94 606.4 391.86 603.52 403.74 616.55"/><polygon id="triangle36-176" data-name="triangle36" class="cls-6" points="157.17 244.09 168.84 288.86 201.79 288.8 157.17 244.09"/><polygon id="triangle36-177" data-name="triangle36" class="cls-6" points="157.17 244.09 223.89 241.9 201.79 288.8 157.17 244.09"/><polygon id="triangle36-178" data-name="triangle36" class="cls-6" points="168.84 288.86 209.27 324.01 201.79 288.8 168.84 288.86"/><polygon id="triangle36-179" data-name="triangle36" class="cls-6" points="223.89 241.9 232.66 317.79 201.79 288.8 223.89 241.9"/><polygon id="triangle36-180" data-name="triangle36" class="cls-6" points="209.27 324.01 232.66 317.79 201.79 288.8 209.27 324.01"/><polygon id="triangle36-181" data-name="triangle36" class="cls-6" points="319.4 302.46 352.62 328.95 340.54 342.98 319.4 302.46"/><polygon id="triangle36-182" data-name="triangle36" class="cls-6" points="352.62 328.95 455.8 402.35 340.54 342.98 352.62 328.95"/><polygon id="triangle36-183" data-name="triangle36" class="cls-6" points="296.14 420.62 360.03 464.64 340.54 342.98 296.14 420.62"/><polygon id="triangle36-184" data-name="triangle36" class="cls-6" points="360.03 464.64 455.8 402.35 340.54 342.98 360.03 464.64"/><polygon id="triangle36-185" data-name="triangle36" class="cls-6" points="319.4 302.46 340.54 342.98 272.06 348.2 319.4 302.46"/><polygon id="triangle36-186" data-name="triangle36" class="cls-6" points="340.54 342.98 296.14 420.62 272.06 348.2 340.54 342.98"/><polygon id="triangle36-187" data-name="triangle36" class="cls-6" points="259.07 430.91 296.14 420.62 272.06 348.2 259.07 430.91"/><polygon id="triangle36-188" data-name="triangle36" class="cls-6" points="209.27 324.01 259.07 430.91 272.06 348.2 209.27 324.01"/><polygon id="triangle36-189" data-name="triangle36" class="cls-6" points="209.27 324.01 252.14 328.56 272.06 348.2 209.27 324.01"/><polygon id="triangle36-190" data-name="triangle36" class="cls-6" points="252.14 328.56 319.4 302.46 272.06 348.2 252.14 328.56"/><polygon id="triangle36-191" data-name="triangle36" class="cls-6" points="799.6 302.37 798.23 371.54 830.56 380.3 799.6 302.37"/><polygon id="triangle36-192" data-name="triangle36" class="cls-6" points="798.23 371.54 782.55 415.08 830.56 380.3 798.23 371.54"/><polygon id="triangle36-193" data-name="triangle36" class="cls-6" points="576.99 468.23 579.64 516.76 594.47 484.64 576.99 468.23"/><polygon id="triangle36-194" data-name="triangle36" class="cls-6" points="594.47 484.64 579.64 516.76 678.7 565.61 594.47 484.64"/><polygon id="triangle36-195" data-name="triangle36" class="cls-6" points="579.64 516.76 640.13 567.92 678.7 565.61 579.64 516.76"/><polygon id="triangle36-196" data-name="triangle36" class="cls-6" points="640.13 567.92 577.37 688.45 678.7 565.61 640.13 567.92"/><polygon id="triangle36-197" data-name="triangle36" class="cls-6" points="24.23 392.67 60.63 409.94 76.72 457 24.23 392.67"/><polygon id="triangle36-198" data-name="triangle36" class="cls-6" points="60.63 409.94 87.41 401.26 76.72 457 60.63 409.94"/><polygon id="triangle36-199" data-name="triangle36" class="cls-6" points="87.41 401.26 139.61 448.4 76.72 457 87.41 401.26"/><polygon id="triangle36-200" data-name="triangle36" class="cls-6" points="139.61 448.4 112.02 492.96 76.72 457 139.61 448.4"/><polygon id="triangle36-201" data-name="triangle36" class="cls-6" points="782.55 415.08 830.56 380.3 720.18 597.52 782.55 415.08"/><polygon id="triangle36-202" data-name="triangle36" class="cls-6" points="782.55 415.08 780.45 453.51 720.18 597.52 782.55 415.08"/><polygon id="triangle36-203" data-name="triangle36" class="cls-6" points="678.7 565.61 577.37 688.45 720.18 597.52 678.7 565.61"/><polygon id="triangle36-204" data-name="triangle36" class="cls-6" points="757.62 469.65 780.45 453.51 720.18 597.52 757.62 469.65"/><polygon id="triangle36-205" data-name="triangle36" class="cls-6" points="577.37 688.45 562.51 737.46 720.18 597.52 577.37 688.45"/><polygon id="triangle36-206" data-name="triangle36" class="cls-6" points="360.03 464.64 455.8 402.35 455.7 435.14 360.03 464.64"/><polygon id="triangle36-207" data-name="triangle36" class="cls-6" points="360.03 464.64 419.99 496.51 455.7 435.14 360.03 464.64"/><polygon id="triangle36-208" data-name="triangle36" class="cls-6" points="455.8 402.35 518.31 438.5 455.7 435.14 455.8 402.35"/><polygon id="triangle36-209" data-name="triangle36" class="cls-6" points="419.99 496.51 478.73 468.98 455.7 435.14 419.99 496.51"/><polygon id="triangle36-210" data-name="triangle36" class="cls-6" points="478.73 468.98 518.31 438.5 455.7 435.14 478.73 468.98"/><polygon id="triangle36-211" data-name="triangle36" class="cls-6" points="576.99 468.23 594.47 484.64 639.22 482.5 576.99 468.23"/><polygon id="triangle36-212" data-name="triangle36" class="cls-6" points="576.99 468.23 652.28 453.42 639.22 482.5 576.99 468.23"/><polygon id="triangle36-213" data-name="triangle36" class="cls-6" points="594.47 484.64 678.7 565.61 639.22 482.5 594.47 484.64"/><polygon id="triangle36-214" data-name="triangle36" class="cls-6" points="652.28 453.42 689.5 507.17 639.22 482.5 652.28 453.42"/><polygon id="triangle36-215" data-name="triangle36" class="cls-6" points="689.5 507.17 683.28 517.3 639.22 482.5 689.5 507.17"/><polygon id="triangle36-216" data-name="triangle36" class="cls-6" points="683.28 517.3 678.7 565.61 639.22 482.5 683.28 517.3"/><polygon id="triangle36-217" data-name="triangle36" class="cls-6" points="691.93 438.04 689.5 507.17 699.31 510.74 691.93 438.04"/><polygon id="triangle36-218" data-name="triangle36" class="cls-6" points="691.93 438.04 757.62 469.65 699.31 510.74 691.93 438.04"/><polygon id="triangle36-219" data-name="triangle36" class="cls-6" points="689.5 507.17 683.28 517.3 699.31 510.74 689.5 507.17"/><polygon id="triangle36-220" data-name="triangle36" class="cls-6" points="683.28 517.3 678.7 565.61 699.31 510.74 683.28 517.3"/><polygon id="triangle36-221" data-name="triangle36" class="cls-6" points="678.7 565.61 720.18 597.52 699.31 510.74 678.7 565.61"/><polygon id="triangle36-222" data-name="triangle36" class="cls-6" points="757.62 469.65 720.18 597.52 699.31 510.74 757.62 469.65"/><polygon id="triangle36-223" data-name="triangle36" class="cls-6" points="566.71 161.66 612.84 205.92 626.84 175.84 566.71 161.66"/><polygon id="triangle36-224" data-name="triangle36" class="cls-6" points="612.84 205.92 663.08 206.12 626.84 175.84 612.84 205.92"/><polygon id="triangle36-225" data-name="triangle36" class="cls-6" points="227.09 536.18 289.02 494.74 260.08 599.1 227.09 536.18"/><polygon id="triangle36-226" data-name="triangle36" class="cls-6" points="227.09 536.18 195.51 684.79 260.08 599.1 227.09 536.18"/><polygon id="triangle36-227" data-name="triangle36" class="cls-6" points="289.02 494.74 361.03 599 260.08 599.1 289.02 494.74"/><polygon id="triangle36-228" data-name="triangle36" class="cls-6" points="260.08 599.1 195.51 684.79 295.74 628.83 260.08 599.1"/><polygon id="triangle36-229" data-name="triangle36" class="cls-6" points="260.08 599.1 361.03 599 295.74 628.83 260.08 599.1"/><polygon id="triangle36-230" data-name="triangle36" class="cls-6" points="315.93 636.51 361.03 599 295.74 628.83 315.93 636.51"/><polygon id="triangle36-231" data-name="triangle36" class="cls-6" points="183.67 521.72 195.51 684.79 111.76 500.23 183.67 521.72"/><polygon id="triangle36-232" data-name="triangle36" class="cls-6" points="112.02 492.96 183.67 521.72 111.76 500.23 112.02 492.96"/><polygon id="triangle36-233" data-name="triangle36" class="cls-6" points="157.17 244.09 223.89 241.9 215.35 206.64 157.17 244.09"/><polygon id="triangle36-234" data-name="triangle36" class="cls-6" points="223.89 241.9 262.77 214.51 215.35 206.64 223.89 241.9"/><polygon id="triangle36-235" data-name="triangle36" class="cls-6" points="262.77 214.51 272.07 193.19 215.35 206.64 262.77 214.51"/><polygon id="triangle36-236" data-name="triangle36" class="cls-6" points="493.41 98.47 469.94 132.81 502.09 125.41 493.41 98.47"/><polygon id="triangle36-237" data-name="triangle36" class="cls-6" points="469.94 132.81 531.41 164.22 502.09 125.41 469.94 132.81"/><polygon id="triangle36-238" data-name="triangle36" class="cls-6" points="531.41 164.22 566.71 161.66 502.09 125.41 531.41 164.22"/><polygon id="triangle36-239" data-name="triangle36" class="cls-6" points="502.09 125.41 566.71 161.66 595.93 117.69 502.09 125.41"/><polygon id="triangle36-240" data-name="triangle36" class="cls-6" points="566.71 161.66 626.84 175.84 595.93 117.69 566.71 161.66"/></g><circle class="cls-7" cx="256.83" cy="602.38" r="3.18" transform="translate(-355.13 374.21) rotate(-46.79)"/><circle class="cls-7" cx="358.53" cy="602.38" r="3.18" transform="translate(-323.08 448.45) rotate(-46.8)"/><circle class="cls-7" cx="387.97" cy="607.47" r="3.18" transform="translate(-317.5 471.52) rotate(-46.8)"/><circle class="cls-7" cx="417.99" cy="609.36" r="3.18" transform="translate(-309.39 493.92) rotate(-46.8)"/><circle class="cls-7" cx="402.86" cy="590.45" r="3.18" transform="translate(-300.39 476.96) rotate(-46.8)"/><circle class="cls-7" cx="429.55" cy="576.04" r="3.18" transform="translate(-281.48 491.95) rotate(-46.81)"/><circle class="cls-7" cx="429.33" cy="569.27" r="3.18" transform="translate(-276.6 489.66) rotate(-46.81)"/><circle class="cls-7" cx="394.32" cy="551.69" r="3.18" transform="translate(-274.83 458.55) rotate(-46.8)"/><circle class="cls-7" cx="402.14" cy="521.18" r="3.18" transform="translate(-250.12 454.58) rotate(-46.8)"/><circle class="cls-7" cx="417.04" cy="499.47" r="3.18" transform="translate(-229.59 458.64) rotate(-46.8)"/><circle class="cls-8" cx="357.08" cy="467.6" r="3.18" transform="translate(-225.27 404.84) rotate(-46.8)"/><circle class="cls-7" cx="315.17" cy="462.07" r="3.18" transform="translate(-234.46 372.55) rotate(-46.8)"/><circle class="cls-7" cx="286.16" cy="469.59" r="3.18" transform="translate(-249.1 353.76) rotate(-46.8)"/><circle class="cls-7" cx="285.01" cy="497.64" r="3.18" transform="translate(-269.9 361.75) rotate(-46.8)"/><circle class="cls-7" cx="224.14" cy="539.14" r="3.18" transform="translate(-319.35 330.47) rotate(-46.8)"/><circle class="cls-7" cx="180.72" cy="524.68" r="3.18" transform="translate(-322.51 294.28) rotate(-46.8)"/><circle class="cls-7" cx="194.84" cy="493.3" r="3.18" transform="translate(-295.2 294.7) rotate(-46.8)"/><circle class="cls-8" cx="252.7" cy="484.21" r="3.18" transform="translate(-270.33 334.05) rotate(-46.81)"/><circle class="cls-7" cx="256.12" cy="433.87" r="3.18" transform="translate(-232.54 320.63) rotate(-46.8)"/><circle class="cls-7" cx="293.19" cy="423.58" r="3.18" transform="translate(-213.34 344.38) rotate(-46.8)"/><circle class="cls-7" cx="475.78" cy="471.94" r="3.18" transform="translate(-190.99 492.81) rotate(-46.81)"/><circle class="cls-7" cx="452.75" cy="438.1" r="3.18" transform="translate(-173.59 465.27) rotate(-46.8)"/><circle class="cls-8" cx="452.85" cy="405.31" r="3.18" transform="translate(-149.66 455) rotate(-46.8)"/><circle class="cls-7" cx="514.36" cy="442.53" r="3.18" transform="translate(-157.38 511.65) rotate(-46.81)"/><circle class="cls-7" cx="549.8" cy="450.31" r="3.18" transform="translate(-151.87 539.91) rotate(-46.8)"/><circle class="cls-7" cx="574.04" cy="471.19" r="3.18" transform="translate(-159.45 564.17) rotate(-46.8)"/><circle class="cls-7" cx="592.19" cy="488.23" r="3.18" transform="translate(-166.16 582.69) rotate(-46.8)"/><circle class="cls-7" cx="576.7" cy="519.73" r="3.18" transform="translate(-194 581.37) rotate(-46.8)"/><circle class="cls-7" cx="541.59" cy="538.44" r="3.18" transform="translate(-218.71 561.68) rotate(-46.8)"/><circle class="cls-7" cx="553.1" cy="574.62" r="3.18" transform="translate(-241.45 581.45) rotate(-46.8)"/><circle class="cls-7" cx="531.46" cy="604.09" r="3.18" transform="translate(-269.76 575) rotate(-46.8)"/><circle class="cls-7" cx="529.08" cy="594.34" r="3.18" transform="translate(-263.41 570.25) rotate(-46.8)"/><circle class="cls-7" cx="512.01" cy="565.29" r="3.18" transform="translate(-247.62 548.55) rotate(-46.8)"/><circle class="cls-7" cx="483.81" cy="521.76" r="3.18" transform="translate(-224.78 514.34) rotate(-46.8)"/><circle class="cls-7" cx="481.07" cy="501.34" r="3.18" transform="translate(-210.76 505.83) rotate(-46.8)"/><circle class="cls-7" cx="637.18" cy="570.88" r="3.18" transform="translate(-212.2 641.69) rotate(-46.81)"/><circle class="cls-7" cx="674" cy="568.13" r="3.18" transform="translate(-198.58 667.58) rotate(-46.8)"/><circle class="cls-7" cx="717.23" cy="600.48" r="3.18" transform="translate(-208.52 709.34) rotate(-46.8)"/><circle class="cls-7" cx="696.36" cy="513.7" r="3.18" transform="translate(-151.85 666.71) rotate(-46.8)"/><circle class="cls-7" cx="686.56" cy="510.13" r="3.18" transform="translate(-152.36 658.38) rotate(-46.8)"/><circle class="cls-7" cx="680.33" cy="520.26" r="3.18" transform="translate(-161.69 657.08) rotate(-46.8)"/><circle class="cls-7" cx="636.17" cy="485.36" r="3.18" transform="translate(-150.18 613.93) rotate(-46.8)"/><circle class="cls-7" cx="649.33" cy="456.38" r="3.18" transform="translate(-124.91 614.34) rotate(-46.8)"/><circle class="cls-7" cx="646.17" cy="439.32" r="3.18" transform="translate(-113.46 606.69) rotate(-46.8)"/><circle class="cls-7" cx="688.99" cy="441" r="3.18" transform="translate(-101.18 638.44) rotate(-46.8)"/><circle class="cls-7" cx="719.9" cy="417.42" r="3.18" transform="translate(-74.23 653.54) rotate(-46.8)"/><circle class="cls-7" cx="686.35" cy="366.18" r="3.18" transform="translate(-47.48 612.87) rotate(-46.8)"/><circle class="cls-7" cx="675.56" cy="360.74" r="3.18" transform="translate(-46.92 603.29) rotate(-46.8)"/><circle class="cls-7" cx="744.13" cy="321.78" r="3.18" transform="translate(3.13 641.03) rotate(-46.8)"/><circle class="cls-7" cx="796.14" cy="305.87" r="3.18" transform="translate(31.12 673.88) rotate(-46.8)"/><circle class="cls-7" cx="795.45" cy="374.32" r="3.18" transform="translate(-19 694.97) rotate(-46.8)"/><circle class="cls-7" cx="770.71" cy="345.8" r="3.18" transform="translate(-6.03 667.9) rotate(-46.8)"/><circle class="cls-7" cx="735.26" cy="399.89" r="3.18" transform="translate(-56.59 659.26) rotate(-46.81)"/><circle class="cls-7" cx="779.3" cy="417.76" r="3.18" transform="translate(-55.78 696.84) rotate(-46.8)"/><circle class="cls-7" cx="826.68" cy="382.38" r="3.18" transform="translate(-14.99 720.35) rotate(-46.8)"/><circle class="cls-7" cx="776.87" cy="457.15" r="3.18" transform="translate(-85.22 707.62) rotate(-46.8)"/><circle class="cls-7" cx="768.98" cy="450.35" r="3.18" transform="translate(-82.77 699.66) rotate(-46.8)"/><circle class="cls-7" cx="762.52" cy="467.77" r="3.18" transform="translate(-97.52 700.41) rotate(-46.8)"/><circle class="cls-7" cx="753.9" cy="473.43" r="3.18" transform="translate(-104.34 695.99) rotate(-46.8)"/><circle class="cls-7" cx="658.27" cy="360.48" r="3.18" transform="translate(-52.17 590.64) rotate(-46.8)"/><circle class="cls-7" cx="603.95" cy="351.76" r="3.18" transform="translate(-62.96 548.26) rotate(-46.8)"/><circle class="cls-7" cx="542.06" cy="345.32" r="3.18" transform="translate(-77.78 501.14) rotate(-46.8)"/><circle class="cls-7" cx="562.85" cy="387.39" r="3.18" transform="translate(-101.91 529.5) rotate(-46.8)"/><circle class="cls-7" cx="472.33" cy="339.04" r="3.18" transform="translate(-95.2 448.33) rotate(-46.8)"/><circle class="cls-7" cx="484.99" cy="325.55" r="3.18" transform="translate(-81.38 453.27) rotate(-46.8)"/><circle class="cls-7" cx="502.16" cy="315.37" r="3.18" transform="translate(-68.55 462.54) rotate(-46.8)"/><circle class="cls-7" cx="571.44" cy="288.35" r="3.18" transform="translate(-26.98 504.59) rotate(-46.8)"/><circle class="cls-7" cx="611.95" cy="300.07" r="3.18" transform="translate(-22.75 537.82) rotate(-46.8)"/><circle class="cls-7" cx="609.18" cy="207.28" r="3.18" transform="translate(44 506.47) rotate(-46.8)"/><circle class="cls-7" cx="562.89" cy="163.8" r="3.18" transform="translate(61.13 459.07) rotate(-46.8)"/><circle class="cls-7" cx="592.99" cy="120.65" r="3.18" transform="translate(102.04 467.35) rotate(-46.8)"/><circle class="cls-9" cx="527.53" cy="52.61" r="3.18" transform="translate(131.01 398.2) rotate(-46.8)"/><circle class="cls-7" cx="623.89" cy="178.8" r="3.18" transform="translate(69.44 508.27) rotate(-46.8)"/><circle class="cls-7" cx="660.13" cy="209.08" r="3.18" transform="matrix(0.68, -0.73, 0.73, 0.68, 58.8, 544.25)"/><circle class="cls-7" cx="552.03" cy="207.16" r="3.18" transform="translate(26.11 464.87) rotate(-46.81)"/><circle class="cls-8" cx="494.52" cy="225.51" r="3.18" transform="translate(-5.45 428.67) rotate(-46.8)"/><circle class="cls-7" cx="480.17" cy="218.62" r="3.18" transform="translate(-4.93 416.06) rotate(-46.8)"/><circle class="cls-7" cx="528.47" cy="167.19" r="3.18" transform="translate(47.79 435.03) rotate(-46.8)"/><circle class="cls-9" cx="498.65" cy="128.89" r="3.18" transform="translate(66.31 401.23) rotate(-46.8)"/><circle class="cls-7" cx="466.99" cy="135.77" r="3.18" transform="translate(51.3 380.31) rotate(-46.8)"/><circle class="cls-7" cx="459.52" cy="93.52" r="3.18" transform="translate(79.74 361.52) rotate(-46.8)"/><circle class="cls-7" cx="475.67" cy="66.98" r="3.18" transform="translate(104.19 364.94) rotate(-46.8)"/><circle class="cls-7" cx="489.88" cy="100.88" r="3.18" transform="translate(83.95 385.98) rotate(-46.8)"/><circle class="cls-9" cx="464.49" cy="35.7" r="3.18" transform="translate(123.49 346.94) rotate(-46.81)"/><circle class="cls-7" cx="444.02" cy="6.14" r="3.18" transform="translate(138.54 322.66) rotate(-46.8)"/><circle class="cls-7" cx="404.19" cy="60.22" r="3.18" transform="translate(86.54 310.67) rotate(-46.8)"/><circle class="cls-9" cx="365.6" cy="49.96" r="3.18" transform="translate(81.88 279.33) rotate(-46.8)"/><circle class="cls-9" cx="382.61" cy="105.39" r="3.18" transform="translate(46.84 309.23) rotate(-46.81)"/><circle class="cls-7" cx="364.48" cy="107.16" r="3.18" transform="translate(39.82 296.56) rotate(-46.8)"/><circle class="cls-9" cx="353.1" cy="166" r="3.18" transform="translate(-6.68 306.81) rotate(-46.8)"/><circle class="cls-7" cx="378.2" cy="209.31" r="3.18" transform="translate(-30.32 338.77) rotate(-46.8)"/><circle class="cls-7" cx="339.94" cy="227.87" r="3.18" transform="translate(-55.93 316.72) rotate(-46.8)"/><circle class="cls-7" cx="326.25" cy="253.54" r="3.18" transform="translate(-78.96 314.87) rotate(-46.8)"/><circle class="cls-7" cx="355.94" cy="234.54" r="3.18" transform="translate(-55.75 330.47) rotate(-46.8)"/><circle class="cls-7" cx="269.13" cy="196.15" r="3.18" transform="translate(-55.14 255.11) rotate(-46.8)"/><circle class="cls-7" cx="213.27" cy="210.4" r="3.18" transform="translate(-83.15 218.9) rotate(-46.81)"/><circle class="cls-7" cx="220.95" cy="244.86" r="3.18" transform="translate(-105.85 235.36) rotate(-46.8)"/><circle class="cls-7" cx="198.84" cy="291.76" r="3.18" transform="translate(-147.01 234.04) rotate(-46.8)"/><circle class="cls-8" cx="154.23" cy="247.04" r="3.18" transform="matrix(0.68, -0.73, 0.73, 0.68, -128.49, 187.39)"/><circle class="cls-7" cx="166.46" cy="292.36" r="3.18" transform="translate(-157.67 210.63) rotate(-46.8)"/><circle class="cls-8" cx="162.21" cy="340.05" r="3.18" transform="translate(-193.76 222.53) rotate(-46.8)"/><circle class="cls-7" cx="124.9" cy="362.33" r="3.18" transform="translate(-221.78 202.38) rotate(-46.8)"/><circle class="cls-7" cx="84.46" cy="404.22" r="3.18" transform="translate(-265.08 186.14) rotate(-46.8)"/><circle class="cls-7" cx="102.05" cy="365.64" r="3.18" transform="translate(-231.4 186.77) rotate(-46.8)"/><circle class="cls-8" cx="93.47" cy="361.94" r="3.18" transform="translate(-231.42 179.37) rotate(-46.8)"/><circle class="cls-7" cx="84.31" cy="301.66" r="3.18" transform="translate(-190.36 153.65) rotate(-46.8)"/><circle class="cls-7" cx="77.22" cy="318.5" r="3.18" transform="matrix(0.68, -0.73, 0.73, 0.68, -204.86, 153.8)"/><circle class="cls-7" cx="25.6" cy="363.01" r="3.18" transform="translate(-253.59 130.21) rotate(-46.8)"/><circle class="cls-7" cx="136.66" cy="451.36" r="3.18" transform="translate(-282.96 239.02) rotate(-46.8)"/><circle class="cls-7" cx="108.59" cy="504.55" r="3.18" transform="translate(-330.61 235.38) rotate(-46.8)"/><circle class="cls-7" cx="21.28" cy="395.63" r="3.18" transform="translate(-278.77 137.38) rotate(-46.81)"/><circle class="cls-7" cx="36.36" cy="414.32" r="3.18" transform="translate(-287.63 154.28) rotate(-46.81)"/><circle class="cls-7" cx="109.07" cy="495.92" r="3.18" transform="translate(-324.18 233.03) rotate(-46.81)"/><circle class="cls-7" cx="74.77" cy="460.89" r="3.18" transform="matrix(0.68, -0.73, 0.73, 0.68, -309.47, 196.97)"/><circle class="cls-8" cx="57.68" cy="412.9" r="3.18" transform="translate(-279.84 169.33) rotate(-46.8)"/><circle class="cls-7" cx="206.8" cy="325.88" r="3.18" transform="translate(-169.37 250.61) rotate(-46.8)"/><circle class="cls-7" cx="229.71" cy="320.75" r="3.18" transform="translate(-158.4 265.65) rotate(-46.8)"/><circle class="cls-7" cx="249.02" cy="331.7" r="3.18" transform="translate(-160.3 283.2) rotate(-46.8)"/><circle class="cls-7" cx="269.11" cy="351.16" r="3.18" transform="translate(-168.15 303.98) rotate(-46.8)"/><circle class="cls-7" cx="306.06" cy="279.69" r="3.18" transform="translate(-104.39 308.4) rotate(-46.8)"/><circle class="cls-7" cx="285.4" cy="277.2" r="3.18" transform="translate(-109.09 292.53) rotate(-46.8)"/><circle class="cls-8" cx="316.45" cy="305.42" r="3.18" transform="translate(-119.87 324.06) rotate(-46.8)"/><circle class="cls-7" cx="339.26" cy="298.64" r="3.18" transform="translate(-107.73 338.55) rotate(-46.8)"/><circle class="cls-7" cx="349.5" cy="332.09" r="3.18" transform="translate(-128.89 356.57) rotate(-46.8)"/><circle class="cls-7" cx="338.24" cy="346.55" r="3.18" transform="translate(-142.98 352.92) rotate(-46.8)"/><circle class="cls-7" cx="258.72" cy="218.65" r="3.18" transform="translate(-74.83 254.62) rotate(-46.8)"/><circle class="cls-7" cx="385.21" cy="249.71" r="3.18" transform="translate(-57.57 356.61) rotate(-46.8)"/><circle class="cls-7" cx="318.26" cy="113.21" r="3.18" transform="translate(20.82 264.76) rotate(-46.8)"/><circle class="cls-7" cx="282.82" cy="47.66" r="3.18" transform="translate(57.43 218.25) rotate(-46.8)"/><circle class="cls-7" cx="616.92" cy="316.96" r="3.18" transform="translate(-33.48 546.77) rotate(-46.8)"/><circle class="cls-8" cx="448.95" cy="304.4" r="3.18" transform="translate(-77.32 420.36) rotate(-46.8)"/><polyline class="cls-6" points="321.97 109.44 285.17 44.7 370.61 46.47"/></g></g></svg>