<svg id="Layer_1" data-name="Layer 1" xmlns="http://www.w3.org/2000/svg" viewBox="0 0 89.09 69.03"><defs><style>.cls-1{fill:none;stroke:#58595b;stroke-miterlimit:10;stroke-width:0.25px;}.cls-2{fill:#672c8e;}</style></defs><title>logo</title><path class="cls-1" d="M137.86,76.08s15.42-16.14,45.19-8" transform="translate(-127.77 -18.83)"/><path class="cls-1" d="M161.51,84.86s75.41-25,45.28-60C184.85-.69,184.25,68.34,184.25,68.34c-20.64,5.19-22.74,16.53-22.74,16.53a31.83,31.83,0,0,1-21.28-10.63" transform="translate(-127.77 -18.83)"/><path class="cls-1" d="M185,69.31s-16-23-7.1-38.69" transform="translate(-127.77 -18.83)"/><path class="cls-1" d="M213.15,64.74s-20.61,5-27,15.87-47.41-19.16-52.42-29.1" transform="translate(-127.77 -18.83)"/><path class="cls-1" d="M139.72,73.58a48,48,0,0,1-6.93-23.33" transform="translate(-127.77 -18.83)"/><path class="cls-1" d="M212.23,63.56s12.46-31.43-4.08-40.75" transform="translate(-127.77 -18.83)"/><path class="cls-1" d="M214.7,63.54s-24.44-3.76-29.86,4.35" transform="translate(-127.77 -18.83)"/><path class="cls-1" d="M160.81,84s-24.79-24-27.63-33.22" transform="translate(-127.77 -18.83)"/><path class="cls-1" d="M186.19,80.61s-4.31-7.2-2.58-11.77" transform="translate(-127.77 -18.83)"/><path class="cls-2" d="M154.59,41.93a2.5,2.5,0,0,1,3.74,3.27l15.29,13.35,0.12-.14-1.46-1.58s-9.15-17.58-9.11-22.51c0,0-14.65-6.4-23.34-11.5l-3.09,3.54Z" transform="translate(-127.77 -18.83)"/><path class="cls-2" d="M154.11,42.48a2.5,2.5,0,0,0,3.74,3.27L173.14,59.1l-0.12.14L171.25,58s-18.65-6.7-23.53-6c0,0-8.32-13.66-14.54-21.58l3.09-3.54Z" transform="translate(-127.77 -18.83)"/><circle class="cls-2" cx="177.49" cy="31.28" r="1.42" transform="translate(-109.59 96.71) rotate(-37.87)"/><circle class="cls-2" cx="140.23" cy="74.23" r="3" transform="translate(-143.81 82.89) rotate(-37.87)"/><circle class="cls-2" cx="184.25" cy="68.34" r="3" transform="translate(-130.92 108.67) rotate(-37.87)"/><circle class="cls-2" cx="206.79" cy="24.83" r="6" transform="translate(-99.46 113.34) rotate(-37.87)"/><circle class="cls-2" cx="161.51" cy="84.86" r="3" transform="translate(-145.85 98.19) rotate(-37.87)"/><circle class="cls-2" cx="213.15" cy="64.74" r="3" transform="translate(-122.62 125.65) rotate(-37.87)"/><circle class="cls-2" cx="186.19" cy="80.61" r="1.02" transform="translate(-138.04 112.44) rotate(-37.87)"/><circle class="cls-2" cx="133.77" cy="51.5" r="6" transform="translate(-131.21 74.13) rotate(-37.87)"/></svg>